{"glyphs":{"0":{"ha":701,"x_min":0,"x_max":0,"o":"m 139 99 b 304 0 178 49 242 0 b 453 72 368 0 404 28 b 660 574 588 197 660 382 b 340 958 660 788 549 958 b 114 796 249 958 149 889 b 42 411 71 678 42 539 b 139 99 42 288 81 204 z m 224 399 b 326 782 224 529 246 678 b 401 847 339 799 369 847 b 538 583 492 847 538 651 b 513 424 538 528 532 478 b 483 351 508 411 488 361 l 404 208 b 311 124 390 185 343 124 b 224 399 236 124 224 360 z "},"1":{"ha":633,"x_min":0,"x_max":0,"o":"m 208 183 l 117 142 b 64 89 99 133 64 111 l 64 7 b 143 -36 64 -26 122 -36 l 151 -36 l 551 40 b 592 104 579 46 592 81 b 476 147 592 158 507 147 l 476 196 b 367 232 476 226 361 199 b 365 411 365 257 365 383 b 378 894 365 574 378 735 b 361 940 378 904 372 940 l 285 940 b 272 935 285 940 275 938 b 256 924 268 932 256 925 l 53 722 b 42 693 44 714 42 704 b 103 644 42 664 79 644 b 197 699 132 644 176 681 l 203 699 b 197 472 203 624 197 547 b 215 192 197 376 215 286 b 208 183 215 188 214 186 z "},"2":{"ha":647,"x_min":0,"x_max":0,"o":"m 42 82 b 113 29 42 47 83 29 l 118 29 b 274 54 133 32 258 53 b 499 60 332 60 442 61 b 599 142 508 60 596 136 b 606 182 604 154 606 169 b 569 218 606 204 590 215 b 354 224 494 233 438 224 l 354 232 l 458 450 l 547 735 b 553 794 549 740 553 781 b 335 965 553 913 439 965 b 60 688 188 965 60 843 b 131 585 60 638 74 585 b 164 603 146 585 158 585 b 335 824 181 696 221 824 b 396 765 372 824 396 804 b 354 622 396 715 375 663 l 124 153 b 42 82 108 122 42 149 z "},"3":{"ha":611,"x_min":0,"x_max":0,"o":"m 151 99 b 274 53 151 53 233 53 l 288 53 b 569 339 433 53 569 185 b 507 474 569 381 549 453 l 397 526 l 397 533 l 413 553 b 525 806 469 629 525 706 b 425 960 525 872 492 936 b 328 983 394 969 361 983 b 263 971 307 983 275 978 l 129 893 b 72 835 126 892 86 851 b 42 760 54 815 42 786 b 121 704 42 717 88 704 b 306 847 239 704 183 847 b 379 776 346 847 379 822 b 268 592 379 710 318 629 b 158 482 233 567 158 540 b 274 432 158 424 240 436 b 432 311 326 425 432 376 b 328 189 432 253 381 203 l 182 153 b 151 99 164 149 151 117 z "},"\u0000":{"ha":0,"x_min":0,"x_max":0,"o":""},"\r":{"ha":347,"x_min":0,"x_max":0,"o":""}," ":{"ha":347,"x_min":0,"x_max":0,"o":""},"!":{"ha":243,"x_min":0,"x_max":0,"o":"m 42 550 b 43 381 42 508 42 389 b 49 304 43 374 46 319 b 92 249 50 279 57 249 b 196 304 119 249 186 268 b 201 654 196 357 200 601 l 201 954 b 131 982 190 968 146 982 b 64 926 85 982 69 968 b 43 686 60 890 44 722 b 42 550 42 683 42 588 z m 81 97 b 142 14 81 51 94 14 b 201 81 178 14 201 47 b 156 174 201 103 193 174 l 151 174 l 103 168 b 81 101 81 153 81 126 z "},"\"":{"ha":439,"x_min":0,"x_max":0,"o":"m 47 657 b 108 586 74 631 49 586 b 175 622 140 586 168 590 b 196 740 181 649 194 731 l 196 853 b 168 971 193 871 174 953 b 89 1007 147 986 114 1007 b 42 950 60 1007 42 972 b 47 918 42 938 42 932 z m 242 643 b 292 597 242 615 260 597 b 349 615 310 597 338 601 b 397 769 361 668 397 717 b 382 882 397 808 382 843 b 389 953 382 906 389 929 b 308 1013 389 988 343 1013 b 229 942 275 1013 240 956 b 228 929 229 939 228 932 b 249 861 228 904 249 885 b 242 643 249 788 242 717 z "},"$":{"ha":578,"x_min":0,"x_max":0,"o":"m 318 42 l 318 -64 b 350 -79 318 -72 343 -79 b 389 -69 363 -79 375 -71 b 436 -21 433 -62 414 -58 l 436 146 b 467 199 431 146 460 176 b 494 297 486 232 494 260 b 442 431 494 343 478 397 l 211 640 b 204 690 203 646 204 679 b 447 861 204 838 332 822 b 506 867 461 864 489 860 b 536 965 533 879 536 950 b 378 1018 536 1001 424 1015 b 307 1178 378 1165 371 1167 l 294 1181 b 251 1090 251 1171 251 1124 b 257 1001 251 1060 257 1032 b 178 944 257 988 203 964 b 42 682 100 867 42 789 b 121 524 42 628 71 551 l 242 456 b 315 290 293 426 315 346 b 63 101 315 126 63 211 b 94 38 63 82 94 50 b 89 -4 94 24 89 10 b 129 -39 89 -25 108 -39 b 310 42 140 -39 247 8 z "},"'":{"ha":238,"x_min":0,"x_max":0,"o":"m 47 657 b 108 586 74 631 49 586 b 175 622 140 586 168 590 b 196 740 181 649 194 731 l 196 853 b 168 971 193 871 174 953 b 89 1007 147 986 114 1007 b 42 950 60 1007 42 972 b 47 918 42 938 42 932 z "},"(":{"ha":381,"x_min":0,"x_max":0,"o":"m 43 451 b 114 129 40 332 61 238 b 147 71 121 115 143 75 l 244 -33 b 261 -39 249 -39 256 -37 b 328 3 286 -39 328 -24 l 328 13 b 307 60 328 19 313 51 b 231 185 300 72 238 171 b 181 460 183 268 178 367 b 183 524 181 478 183 522 l 233 731 b 304 858 243 772 283 826 b 319 903 315 872 313 890 b 339 940 326 919 338 922 b 299 961 339 960 308 957 b 290 969 297 961 292 969 b 286 971 290 969 288 971 b 214 924 258 972 231 942 b 43 451 101 796 46 621 z "},")":{"ha":357,"x_min":0,"x_max":0,"o":"m 43 -15 b 64 -25 49 -22 56 -25 b 129 -4 82 -26 106 3 b 235 239 178 74 217 146 l 314 633 b 315 647 314 633 314 643 b 311 708 315 664 315 699 l 263 865 b 139 983 243 928 207 982 l 131 983 b 81 953 124 979 88 958 b 78 951 79 953 79 951 b 65 932 68 944 67 943 b 110 850 65 903 100 871 b 144 775 118 836 142 783 b 163 560 165 706 164 631 l 163 528 b 71 60 160 371 140 203 b 44 15 69 56 47 21 b 42 0 44 15 42 4 b 43 -15 42 -3 43 -12 z "},",":{"ha":235,"x_min":0,"x_max":0,"o":"m 47 -161 b 113 -222 71 -190 68 -222 b 174 -112 203 -222 161 -174 b 192 -78 179 -87 193 -99 b 168 103 189 -11 182 28 b 81 124 128 115 99 124 b 47 -161 22 124 50 49 z "},"-":{"ha":488,"x_min":0,"x_max":0,"o":"m 42 357 b 142 258 42 313 96 267 l 244 258 b 415 264 282 261 381 257 b 443 275 424 265 438 268 b 444 386 438 315 444 353 b 76 394 444 399 456 406 b 42 357 57 394 42 371 z "},".":{"ha":271,"x_min":0,"x_max":0,"o":"m 42 24 b 92 -21 42 -3 61 -21 b 229 50 142 -21 229 -4 b 113 122 229 101 161 122 b 42 24 56 122 42 65 z "},"/":{"ha":338,"x_min":0,"x_max":0,"o":"m 42 49 b 63 7 42 32 49 7 l 124 7 b 143 49 131 7 142 42 l 296 881 l 296 926 b 243 951 296 939 250 951 b 231 950 239 951 231 950 l 43 65 b 42 49 43 64 42 51 z "},":":{"ha":271,"x_min":0,"x_max":0,"o":"m 42 529 b 92 485 42 503 61 485 b 229 556 142 485 229 501 b 113 628 229 607 161 628 b 42 529 56 628 42 571 z m 42 24 b 92 -21 42 -3 61 -21 b 229 50 142 -21 229 -4 b 113 122 229 101 161 122 b 42 24 56 122 42 65 z "},";":{"ha":271,"x_min":0,"x_max":0,"o":"m 42 529 b 92 485 42 503 61 485 b 229 556 142 485 229 501 b 113 628 229 607 161 628 b 42 529 56 628 42 571 z m 47 -161 b 113 -222 71 -190 68 -222 b 174 -112 203 -222 161 -174 b 192 -78 179 -87 193 -99 b 168 103 189 -11 182 28 b 81 124 128 115 99 124 b 47 -161 22 124 50 49 z "},"?":{"ha":575,"x_min":0,"x_max":0,"o":"m 196 379 l 196 215 b 267 160 196 169 222 160 b 350 183 299 160 324 163 b 356 224 357 194 356 214 b 331 474 356 307 331 390 b 463 656 331 556 413 601 b 533 833 506 701 533 771 l 533 853 b 431 969 511 911 493 953 b 350 988 410 975 354 988 b 326 989 350 988 333 989 b 42 810 228 989 42 940 l 42 796 l 83 736 b 132 701 93 724 117 701 b 174 717 149 701 158 708 b 210 796 178 728 204 785 b 349 853 236 849 296 853 b 411 817 368 853 411 846 l 411 814 l 397 788 b 192 543 344 693 247 635 b 174 506 186 535 174 508 l 174 431 b 178 418 174 429 175 419 z m 210 61 b 235 10 210 44 215 17 l 290 -12 b 296 -14 290 -14 294 -14 b 350 6 311 -14 340 -10 b 364 78 360 36 364 51 b 299 124 364 124 338 124 b 210 61 260 124 210 110 z "},"@":{"ha":1089,"x_min":0,"x_max":0,"o":"m 42 485 b 560 -49 42 183 251 -49 b 850 29 672 -49 751 -22 b 867 44 853 31 865 42 b 900 100 876 60 900 97 l 900 126 b 889 132 900 128 892 132 b 872 132 888 133 874 132 b 861 143 871 133 863 143 l 858 143 b 747 83 828 143 769 93 b 571 50 690 57 632 50 b 163 464 351 50 163 246 b 261 728 163 561 192 658 b 610 897 367 833 458 897 b 676 896 619 897 665 897 b 932 572 822 865 932 721 b 850 406 932 508 899 446 l 849 404 b 779 367 832 390 803 367 b 742 417 754 367 751 392 b 665 613 729 446 676 583 b 581 646 640 642 618 646 b 521 629 558 646 529 629 l 518 629 b 485 640 514 629 488 640 b 256 410 364 647 256 526 b 400 290 256 329 326 290 b 578 350 461 290 526 319 l 589 350 b 750 263 611 288 689 263 b 1047 592 915 263 1047 436 b 642 989 1047 808 856 989 b 474 978 586 989 528 993 b 42 485 257 921 42 721 z m 386 443 b 397 476 386 453 390 469 l 463 542 b 482 547 468 547 475 547 b 546 468 531 547 546 513 b 544 454 546 465 544 457 b 463 411 533 447 475 417 b 421 399 449 404 436 399 b 386 443 403 399 386 426 z "},"A":{"ha":729,"x_min":0,"x_max":0,"o":"m 115 10 b 160 -8 129 -1 140 -8 b 225 31 189 -8 219 0 b 249 151 228 50 244 133 l 254 157 b 467 165 254 156 422 165 b 476 158 471 165 474 164 l 510 15 b 526 4 513 6 518 4 b 688 76 543 4 686 63 l 688 117 l 497 922 b 447 953 493 950 468 943 b 368 978 415 967 413 978 b 289 950 356 978 294 968 b 42 54 43 178 42 100 l 42 46 b 58 11 42 38 47 11 z m 296 346 b 297 354 296 347 297 354 l 350 526 b 363 543 351 532 357 540 l 368 532 l 428 347 b 324 332 439 332 356 332 l 318 332 b 296 346 307 332 296 332 z m 449 682 b 433 833 449 685 433 831 b 492 488 440 824 492 500 l 492 483 b 449 679 479 483 449 669 z "},"B":{"ha":649,"x_min":0,"x_max":0,"o":"m 144 -8 b 179 -22 157 -8 167 -22 b 267 17 213 -22 239 4 b 607 325 433 69 607 126 b 582 432 607 360 606 403 b 485 503 569 446 485 501 b 574 746 542 578 574 650 b 460 939 574 825 558 914 b 243 967 388 957 315 967 b 63 894 181 967 96 951 b 42 342 63 710 42 528 b 81 4 42 228 58 117 b 125 -14 88 -10 111 -14 b 144 -8 129 -10 138 -8 z m 257 125 b 251 296 257 183 251 264 b 253 338 251 303 253 331 b 429 408 260 349 418 408 b 458 376 449 408 458 390 b 326 143 457 278 404 200 b 263 119 315 135 279 119 b 257 125 261 119 257 122 z m 272 789 b 339 807 292 804 313 807 b 432 761 375 807 408 793 l 432 722 b 260 501 432 650 346 501 l 260 511 b 272 789 261 599 263 700 z "},"C":{"ha":607,"x_min":0,"x_max":0,"o":"m 42 454 b 343 -12 42 218 71 -12 b 514 54 408 -12 469 1 b 513 60 513 56 513 57 b 558 135 513 83 558 64 b 478 236 549 199 542 236 b 364 175 431 236 424 175 b 246 446 279 175 246 301 b 379 857 246 636 304 857 b 403 844 388 857 403 857 l 401 699 b 432 681 401 690 429 681 b 549 728 490 681 496 714 b 564 726 553 728 564 725 b 361 978 575 939 482 996 b 94 753 246 933 142 879 b 42 454 56 651 43 563 z "},"D":{"ha":683,"x_min":0,"x_max":0,"o":"m 50 225 b 61 79 53 204 60 101 b 60 40 61 75 60 44 b 179 -12 64 1 158 -12 b 622 326 399 -12 550 89 b 642 521 625 356 642 507 b 418 968 642 733 594 881 b 292 1003 374 990 339 1003 b 42 867 229 1003 43 946 b 58 828 42 850 43 842 z m 247 510 b 258 890 247 660 253 757 b 432 689 378 890 392 792 b 444 608 442 665 444 636 b 272 165 444 425 406 272 b 261 158 269 164 263 158 l 256 171 b 246 382 254 176 247 324 b 247 510 246 385 246 476 z m 396 147 b 365 117 396 129 381 117 l 363 118 l 365 122 b 396 147 375 138 382 147 z "},"E":{"ha":572,"x_min":0,"x_max":0,"o":"m 47 885 b 58 208 53 607 58 226 b 101 -21 63 144 43 -21 b 175 8 129 -21 160 17 b 250 0 186 7 238 3 l 476 21 b 531 58 500 24 531 32 b 501 94 531 82 501 79 b 446 158 501 150 479 136 l 257 178 b 246 428 249 178 246 422 b 253 438 246 432 246 436 l 407 482 b 438 563 422 486 438 546 b 350 601 438 600 368 601 b 251 590 317 601 285 590 b 243 604 246 592 243 593 l 246 786 b 257 790 246 786 253 789 b 482 865 346 815 482 811 b 481 874 482 868 481 871 b 515 919 501 883 515 896 b 385 994 515 960 418 994 l 192 997 b 42 904 156 997 42 954 b 47 885 42 897 42 890 z "},"F":{"ha":572,"x_min":0,"x_max":0,"o":"m 46 308 b 69 85 51 204 57 165 b 114 -7 71 60 74 -10 b 172 7 133 -7 151 7 b 208 -4 186 7 196 -6 b 290 40 229 -4 292 10 b 274 200 289 56 274 200 b 275 465 269 283 272 382 b 429 528 342 469 432 475 b 414 554 429 539 425 551 b 456 601 440 561 457 574 b 369 642 453 642 397 642 l 367 642 b 271 631 335 640 304 632 b 244 793 256 689 247 733 b 386 808 267 793 365 806 b 418 810 397 810 407 810 b 471 843 440 811 461 817 b 478 876 472 846 475 872 b 529 935 492 894 532 874 b 436 985 528 975 469 985 b 171 985 396 986 210 988 l 153 985 b 78 976 122 983 79 978 l 42 936 b 44 878 43 918 44 899 b 46 308 44 689 40 499 z m 151 332 b 153 575 151 350 154 556 l 158 601 b 163 181 168 415 169 324 b 153 281 157 222 154 250 b 151 332 151 296 153 313 z "},"G":{"ha":765,"x_min":0,"x_max":0,"o":"m 626 -1 b 632 -14 628 -1 631 -12 l 649 -31 b 724 21 667 -24 724 -14 b 722 26 724 22 722 26 l 621 449 b 633 514 618 472 633 490 b 553 554 633 551 585 554 b 525 553 546 554 528 553 l 388 517 b 358 469 374 513 358 482 b 382 442 358 460 369 442 l 453 440 l 492 165 b 418 114 492 132 449 114 b 254 340 311 114 258 314 b 239 474 253 347 239 449 b 282 671 239 542 254 608 b 357 807 296 703 349 797 l 410 857 b 436 861 413 857 435 861 b 500 763 457 861 436 763 b 517 769 501 764 515 769 b 531 763 519 768 531 760 b 563 792 546 763 551 790 b 615 857 614 800 615 790 b 401 1000 615 946 490 1000 b 260 938 347 1000 300 974 b 42 444 111 806 42 643 b 306 25 42 269 92 25 b 514 63 357 25 467 33 b 557 -24 521 54 533 -24 b 621 -1 576 -24 601 -1 z "},"H":{"ha":717,"x_min":0,"x_max":0,"o":"m 42 786 l 85 -12 l 85 -14 b 97 -32 85 -21 92 -32 b 261 63 125 -32 261 36 b 253 315 261 146 250 233 l 268 322 b 456 338 308 315 383 338 l 467 32 b 481 10 468 13 468 10 b 638 64 518 10 638 18 b 617 300 638 143 617 219 b 619 385 617 299 619 368 l 675 933 b 599 982 675 976 633 981 b 499 938 578 963 503 982 l 456 667 l 442 442 b 263 418 367 414 340 418 b 250 443 250 418 250 424 l 250 449 b 265 890 254 599 265 724 b 193 940 261 933 231 939 b 157 913 193 940 167 919 l 157 925 b 93 999 157 968 140 999 b 46 961 71 999 46 989 z m 157 813 b 158 810 158 813 158 811 b 157 807 158 808 158 807 b 154 810 156 807 154 808 b 157 813 154 811 156 813 z "},"I":{"ha":306,"x_min":0,"x_max":0,"o":"m 44 43 b 150 17 47 15 143 15 b 215 76 165 17 213 22 l 264 985 l 247 1004 b 131 1025 246 1004 161 1025 b 92 1000 121 1025 93 1014 l 61 519 b 63 490 61 510 63 500 b 43 257 63 414 44 333 b 42 150 42 218 42 183 b 44 43 42 115 42 82 z "},"J":{"ha":733,"x_min":0,"x_max":0,"o":"m 42 304 b 278 26 42 188 151 26 b 561 581 546 26 561 401 b 558 765 561 643 558 704 l 558 804 b 615 836 558 835 582 836 b 692 926 643 842 692 911 b 642 965 692 947 661 961 b 601 967 628 965 614 967 b 167 981 446 974 324 981 b 140 942 154 972 140 960 b 219 850 140 903 179 853 l 393 835 l 404 519 l 374 285 b 331 181 369 251 353 186 b 232 286 311 181 251 257 b 150 383 207 335 254 375 b 110 349 126 383 125 372 l 60 350 b 42 304 49 350 42 301 z "},"K":{"ha":842,"x_min":0,"x_max":0,"o":"m 43 718 b 42 613 42 683 42 647 b 72 0 42 421 64 0 l 79 -7 b 96 -8 79 -7 90 -8 b 164 10 124 -8 139 8 b 272 63 201 17 272 3 b 257 282 272 135 257 208 b 269 343 257 293 250 343 b 289 335 278 343 283 342 l 625 -14 b 650 -21 635 -22 639 -21 b 683 -14 663 -21 672 -14 b 719 -22 697 -14 704 -22 b 800 19 753 -22 775 -6 l 800 32 b 458 456 800 61 532 336 l 458 468 l 653 758 b 711 897 679 790 711 851 b 633 1007 711 950 693 1007 b 576 946 603 1007 585 969 l 281 510 b 267 497 279 507 268 497 b 264 499 267 497 265 499 b 289 983 267 629 289 854 b 226 1010 279 1003 244 1010 b 182 961 200 1010 185 983 l 150 606 l 161 981 b 96 1006 161 993 96 1006 b 43 740 49 1006 43 799 z "},"L":{"ha":618,"x_min":0,"x_max":0,"o":"m 46 49 b 104 1 58 26 75 1 b 235 -1 151 1 204 -1 b 490 19 253 -1 432 14 b 576 82 522 22 576 42 b 544 122 576 106 569 115 b 551 150 550 133 551 139 b 442 190 551 203 440 190 b 244 161 413 186 274 168 l 239 161 b 225 453 231 269 225 357 b 256 950 225 579 253 825 b 257 989 256 956 256 983 b 96 1033 228 1033 142 1033 l 89 1033 b 44 885 28 1033 44 924 b 50 214 44 703 50 397 b 46 49 50 160 49 104 z "},"M":{"ha":1224,"x_min":0,"x_max":0,"o":"m 43 100 l 42 19 b 75 -4 42 -4 61 -4 b 114 4 90 -4 101 4 b 157 -6 129 4 136 -6 b 229 29 185 -6 215 3 b 269 461 233 85 256 461 l 275 461 l 399 99 b 449 75 407 75 435 75 b 572 222 504 75 540 151 l 582 242 l 842 643 b 854 622 847 639 853 629 l 960 56 b 982 24 964 32 971 24 b 1076 67 1018 24 1044 53 b 1181 131 1101 78 1183 81 l 1065 800 b 911 1031 1036 882 1013 1031 b 868 996 889 1031 881 1018 l 528 396 l 521 389 b 397 744 506 442 425 665 l 392 760 b 286 982 369 814 297 968 l 274 996 b 203 1014 274 994 215 1014 b 163 964 190 994 165 967 z "},"N":{"ha":883,"x_min":0,"x_max":0,"o":"m 46 139 b 43 56 44 104 42 79 l 43 50 b 79 -43 43 14 44 -44 b 176 36 181 -39 151 28 b 235 71 194 43 232 33 l 267 528 b 279 521 272 528 275 528 b 564 14 388 386 479 169 b 586 1 568 1 576 1 b 665 33 615 3 638 32 b 707 25 682 32 686 24 b 794 90 743 26 793 46 b 788 144 793 107 786 125 l 842 954 b 692 1007 839 979 710 1007 b 646 963 671 1006 649 990 l 594 360 l 572 367 l 214 961 b 108 996 196 992 135 997 b 63 924 78 993 61 951 b 46 139 61 685 47 376 z "},"O":{"ha":751,"x_min":0,"x_max":0,"o":"m 42 474 b 353 -36 42 285 133 -31 b 389 -29 365 -36 375 -35 b 710 596 621 68 710 346 b 703 651 710 613 708 629 b 456 994 658 844 619 913 b 407 996 439 994 408 996 b 42 474 189 996 46 701 z m 240 540 b 413 857 243 667 267 857 b 464 822 431 857 456 838 b 524 567 513 729 524 664 b 478 299 524 468 519 428 b 381 190 465 258 424 190 b 314 257 347 190 326 232 b 313 261 314 258 313 260 b 240 528 269 350 239 429 z m 301 97 l 397 97 l 404 88 b 347 68 392 68 367 68 l 340 68 b 301 90 329 72 301 88 z "},"P":{"ha":633,"x_min":0,"x_max":0,"o":"m 49 881 b 47 857 47 876 47 860 b 42 329 46 700 42 331 l 68 22 b 164 -7 71 -3 144 -7 b 244 32 196 -7 236 -7 b 222 260 240 67 226 226 b 282 278 215 276 272 278 l 335 297 b 592 749 503 378 592 569 b 586 794 592 764 590 778 b 226 979 533 969 438 979 b 49 881 106 979 49 932 z m 221 450 l 221 468 l 242 833 b 251 835 243 833 250 835 b 263 833 254 835 261 833 l 283 829 b 440 682 381 813 440 803 b 239 417 440 569 340 457 b 232 415 238 417 233 415 b 219 436 222 415 219 426 b 221 450 219 442 221 446 z "},"Q":{"ha":897,"x_min":0,"x_max":0,"o":"m 42 422 b 394 -17 42 194 138 -17 b 642 56 483 -17 565 10 l 718 -12 l 724 -12 b 818 36 758 -12 817 -12 b 806 65 818 49 817 54 l 811 65 b 846 113 842 65 846 88 b 844 119 846 114 844 117 b 846 122 844 121 846 122 b 783 215 825 150 783 211 b 856 544 840 313 856 383 b 661 915 856 711 826 817 b 492 965 608 947 556 965 b 42 422 219 965 47 669 z m 235 504 b 346 774 236 607 265 706 b 417 751 357 753 400 753 b 544 782 467 769 493 782 b 707 596 643 782 689 679 b 706 518 707 585 706 529 b 675 349 704 467 710 393 b 585 383 653 363 610 382 b 547 371 574 383 558 371 b 488 378 526 372 508 378 b 451 335 463 367 451 356 b 533 182 451 325 526 200 b 424 144 533 168 447 144 b 244 381 293 144 267 275 l 239 404 b 233 463 235 425 233 443 b 235 504 233 475 233 489 z "},"R":{"ha":764,"x_min":0,"x_max":0,"o":"m 42 638 l 57 10 b 100 -12 58 -6 96 -12 b 118 -1 101 -12 117 -1 l 124 1 b 172 13 153 15 165 -31 l 183 -1 b 278 31 190 -7 278 17 l 281 215 b 525 7 322 181 444 64 b 581 0 542 0 558 0 b 696 68 626 0 696 18 b 671 99 696 82 690 83 b 429 339 583 167 508 258 b 486 374 440 356 472 365 b 722 715 603 449 722 561 b 450 971 722 858 579 971 b 276 949 422 971 301 951 b 93 874 194 932 168 907 b 50 843 79 867 51 864 z m 261 763 b 479 835 263 814 426 835 b 536 832 478 835 515 832 b 560 782 557 829 560 801 b 311 467 560 626 421 536 b 276 442 288 451 289 442 b 261 443 272 442 267 443 z m 154 272 b 156 300 154 275 154 296 b 172 119 160 274 171 146 l 172 111 b 175 44 172 104 175 47 l 168 44 b 153 246 168 44 153 201 b 154 272 153 251 154 265 z m 150 313 b 153 310 151 313 153 311 b 150 306 153 307 151 306 b 147 308 149 306 147 307 b 150 313 147 311 149 313 z "},"S":{"ha":690,"x_min":0,"x_max":0,"o":"m 144 83 b 288 -11 222 1 217 -11 b 590 246 421 -11 590 89 b 351 578 590 403 454 492 b 314 675 314 610 314 625 b 378 800 314 728 339 767 b 560 786 444 800 499 786 b 649 844 588 786 649 786 b 407 990 649 972 456 990 b 217 940 336 990 283 985 b 43 654 119 874 42 786 b 343 394 43 578 83 519 l 379 364 l 381 364 b 436 274 392 364 436 289 b 286 192 436 238 328 207 b 200 174 258 182 222 194 b 143 92 161 140 143 117 b 144 83 143 90 143 85 z "},"T":{"ha":628,"x_min":0,"x_max":0,"o":"m 183 331 b 179 60 183 215 179 131 b 178 22 179 46 178 33 l 178 19 b 232 -29 178 -6 178 -37 b 289 19 283 -22 261 -3 l 308 19 b 386 61 340 28 386 32 b 382 211 386 111 382 161 b 425 817 382 390 414 638 b 586 900 468 825 586 835 b 531 950 586 933 563 940 l 122 971 b 97 972 119 971 101 972 b 42 932 76 972 42 957 b 151 854 42 889 104 872 b 206 836 167 849 206 844 b 207 778 206 828 207 788 b 183 331 206 629 185 481 z m 289 444 b 294 426 292 443 294 431 b 289 390 294 417 292 390 l 282 390 z m 281 350 b 288 372 281 358 281 365 l 288 335 b 281 350 279 338 281 343 z m 296 564 b 299 561 297 564 299 563 b 296 558 299 560 297 558 b 293 561 294 558 293 560 b 296 564 293 563 294 564 z m 294 508 b 297 506 296 508 297 507 b 294 503 297 504 296 503 b 292 506 293 503 292 504 b 294 508 292 507 293 508 z m 294 533 b 297 531 296 533 297 532 b 294 528 297 529 296 528 b 292 531 293 528 292 529 b 294 533 292 532 293 533 z m 303 615 b 304 613 304 615 304 614 b 303 610 304 611 304 610 b 300 613 300 610 300 611 b 301 615 300 614 300 615 z m 294 496 b 297 493 296 496 297 494 b 294 492 297 493 296 492 b 292 493 293 492 292 493 b 294 496 292 494 293 496 z "},"U":{"ha":782,"x_min":0,"x_max":0,"o":"m 169 88 b 358 -7 217 26 282 -8 b 739 692 744 0 742 301 l 739 794 b 738 940 739 817 739 919 b 672 972 718 958 697 972 b 617 929 633 972 635 932 b 536 863 574 922 535 926 b 542 742 536 821 542 781 b 406 169 542 315 500 169 b 306 268 354 169 315 221 b 275 439 296 315 274 435 l 269 922 b 260 972 269 933 267 965 b 196 990 236 981 218 990 b 165 983 181 990 182 983 b 121 990 150 983 136 990 b 88 961 110 990 90 974 b 42 647 43 719 42 665 b 169 88 42 476 72 231 z m 153 700 b 154 697 154 700 154 699 b 153 696 154 697 154 696 b 150 697 151 696 150 697 b 153 700 150 699 151 700 z "},"V":{"ha":918,"x_min":0,"x_max":0,"o":"m 315 38 b 314 31 314 35 314 32 b 356 6 314 13 343 6 b 460 93 404 6 442 53 l 724 661 l 875 893 b 876 903 875 894 876 900 b 793 950 876 943 821 946 b 721 994 783 985 754 994 b 681 975 711 994 685 986 l 400 365 l 214 893 b 151 913 214 907 171 913 l 147 913 b 43 863 125 914 40 917 l 194 333 z "},"W":{"ha":1200,"x_min":0,"x_max":0,"o":"m 42 901 l 42 889 l 182 56 b 226 25 185 36 207 25 b 365 244 321 25 328 189 b 494 435 408 336 496 435 l 497 435 l 869 1 b 886 0 869 1 882 0 b 971 89 935 0 971 42 l 1157 903 b 1158 911 1158 903 1158 910 b 1079 954 1158 953 1107 954 b 1008 917 1049 954 1044 917 b 985 919 997 917 992 919 b 832 304 935 919 872 417 b 493 701 728 433 644 689 b 457 682 479 701 464 696 l 296 472 b 279 458 293 468 286 458 b 276 460 278 458 276 458 l 247 944 b 161 960 246 957 200 960 b 42 901 100 960 42 958 z "},"X":{"ha":831,"x_min":0,"x_max":0,"o":"m 42 56 b 153 -11 42 8 115 -11 b 217 28 178 -11 206 7 l 411 342 b 425 335 419 342 419 340 l 608 8 b 633 1 613 1 628 1 b 789 83 667 1 789 36 b 721 244 789 107 721 239 l 543 554 l 753 883 b 767 931 763 897 767 914 b 704 986 767 960 731 986 b 469 735 665 986 561 843 b 453 721 465 729 461 721 b 336 997 428 735 371 897 b 257 1024 318 1022 286 1024 b 219 968 233 1024 219 989 b 226 922 219 953 226 938 b 129 933 193 922 163 933 b 89 888 104 933 89 910 b 90 869 89 885 90 872 b 289 528 138 754 204 646 b 303 499 293 521 301 499 b 301 496 303 497 301 496 l 43 67 b 42 56 43 67 42 58 z m 231 914 b 374 636 260 896 374 653 l 372 636 b 231 914 358 639 286 781 z "},"Y":{"ha":839,"x_min":0,"x_max":0,"o":"m 235 68 b 281 19 235 35 243 19 b 294 25 282 19 293 25 b 326 25 297 26 324 25 l 339 39 b 456 64 358 44 451 33 l 514 526 l 713 799 b 778 864 724 808 768 854 b 797 903 785 872 797 890 b 739 947 797 933 760 936 b 726 967 725 954 739 957 b 661 986 708 981 683 986 b 422 735 632 986 624 978 l 281 979 b 215 999 269 999 238 999 l 208 999 b 156 972 186 999 176 972 b 86 988 132 972 111 988 b 42 947 64 988 42 971 b 47 925 42 939 43 933 b 49 922 47 924 49 924 b 114 793 64 890 110 800 b 281 528 138 753 254 568 l 288 510 l 236 90 b 235 68 236 89 235 74 z "},"Z":{"ha":743,"x_min":0,"x_max":0,"o":"m 119 99 b 121 86 119 96 121 86 b 133 72 121 83 133 75 b 199 1 147 21 125 1 l 217 1 l 663 86 b 701 135 683 89 701 114 b 636 189 701 158 654 181 b 675 233 663 200 675 207 b 607 293 675 268 639 293 b 590 292 604 293 593 292 b 449 260 569 286 471 264 b 404 264 443 258 411 264 l 404 267 l 603 781 l 681 903 l 681 914 b 558 988 681 969 601 988 b 358 974 492 988 425 974 b 93 1000 269 974 182 1000 b 42 951 71 1000 42 974 l 42 949 b 61 910 44 944 61 914 b 100 832 68 883 53 835 l 378 819 l 121 111 b 119 99 121 111 119 101 z "},"a":{"ha":667,"x_min":0,"x_max":0,"o":"m 383 89 l 419 36 l 439 17 l 510 15 b 524 22 511 15 521 19 b 601 64 547 40 578 44 l 613 271 b 622 442 613 275 622 422 b 624 514 622 461 624 513 b 599 586 625 529 622 575 l 492 633 l 485 633 b 425 550 433 635 446 576 b 307 586 390 574 347 585 b 107 486 217 588 156 564 b 43 246 75 435 44 307 b 251 65 42 128 139 67 b 379 89 297 64 335 89 z m 172 229 b 322 457 174 279 269 458 b 410 408 331 457 400 425 b 408 376 410 404 408 381 b 244 175 407 285 326 174 b 172 229 214 175 172 190 z "},"b":{"ha":656,"x_min":0,"x_max":0,"o":"m 46 121 b 114 -76 44 60 22 -75 b 178 -44 128 -76 178 -67 l 179 13 b 218 18 179 14 207 18 b 368 42 271 24 318 18 b 464 92 382 49 450 83 l 485 110 b 499 115 486 110 497 115 b 614 342 567 176 613 247 b 613 390 614 349 614 383 b 435 479 600 456 485 478 b 281 464 382 481 332 463 b 318 719 282 551 317 633 b 251 779 318 750 281 779 l 247 779 l 215 767 l 213 767 b 144 796 188 767 171 794 b 100 763 128 796 101 782 l 49 183 b 46 121 49 181 46 136 z m 435 369 b 469 293 472 369 471 321 b 272 121 468 222 346 118 l 276 340 b 283 346 276 342 281 344 b 435 369 329 365 383 371 z "},"c":{"ha":543,"x_min":0,"x_max":0,"o":"m 43 285 b 246 44 42 168 132 68 b 310 43 256 44 300 43 b 499 117 375 42 476 39 b 453 150 489 129 472 149 l 306 153 b 293 172 304 153 297 167 b 269 271 278 199 271 244 b 269 314 268 272 269 303 b 338 431 269 353 281 432 l 460 428 b 486 446 467 436 475 442 b 481 489 482 463 479 474 b 500 526 481 506 500 503 b 336 618 501 565 375 617 b 43 285 199 621 46 410 z "},"d":{"ha":726,"x_min":0,"x_max":0,"o":"m 426 133 b 458 50 438 113 426 50 b 632 92 499 49 617 53 b 682 632 647 264 668 463 b 685 707 682 636 685 689 l 685 781 b 571 840 685 842 611 836 b 532 854 556 843 546 854 b 486 811 508 854 493 828 b 449 572 476 749 463 647 b 319 575 429 572 339 575 b 275 569 313 575 281 571 b 43 301 150 538 46 435 b 246 106 40 178 125 108 b 336 111 282 106 300 103 b 419 136 356 115 399 136 b 426 133 421 136 425 133 z m 217 300 b 422 451 218 382 351 453 l 424 451 b 440 436 431 450 444 450 b 429 250 429 379 429 304 b 322 239 396 233 358 238 b 261 242 314 239 271 240 b 217 300 231 251 215 269 z "},"e":{"ha":665,"x_min":0,"x_max":0,"o":"m 43 285 b 225 -46 39 131 75 21 b 276 -49 232 -47 268 -49 b 451 38 326 -49 450 -36 b 242 201 453 115 240 83 b 250 218 242 207 242 217 b 622 476 403 215 618 296 b 410 674 625 606 533 671 b 43 285 197 678 47 485 z m 225 333 b 414 524 228 414 333 524 b 496 485 447 524 460 486 b 433 368 494 439 467 394 b 260 321 369 336 326 319 b 225 333 250 321 225 318 z "},"f":{"ha":550,"x_min":0,"x_max":0,"o":"m 201 -8 b 275 -37 225 -42 240 -37 b 346 69 356 -37 346 8 b 342 321 346 154 342 238 b 344 440 342 361 344 392 b 476 506 357 463 476 450 b 464 531 476 519 464 519 b 483 578 464 549 483 561 b 336 621 506 633 358 626 l 329 628 b 326 681 328 629 326 658 l 326 774 b 508 958 326 976 508 835 b 375 1010 450 990 435 1010 b 163 872 285 1010 193 960 b 158 772 163 835 158 769 b 163 633 158 725 163 679 b 161 601 163 624 163 608 l 156 594 l 76 583 b 42 532 68 583 43 549 b 49 513 42 522 46 518 b 171 432 86 449 93 446 b 201 -8 186 193 189 100 z "},"g":{"ha":601,"x_min":0,"x_max":0,"o":"m 128 -193 b 310 -303 128 -285 247 -303 b 560 -39 460 -303 560 -190 b 556 58 560 -12 557 56 l 497 429 l 497 449 l 471 656 b 392 704 467 689 417 704 b 340 647 365 704 346 667 b 331 649 338 647 333 649 b 289 624 314 649 301 638 b 42 351 157 578 42 510 b 225 210 42 258 142 210 b 335 221 261 210 297 221 b 360 -51 354 132 360 39 b 308 -174 360 -82 347 -174 b 193 -144 271 -174 233 -144 b 128 -193 163 -144 129 -158 z m 169 375 b 250 404 171 400 233 392 b 296 456 268 418 278 440 b 319 357 317 446 318 374 b 260 338 314 340 285 338 b 169 375 228 338 169 331 z "},"h":{"ha":590,"x_min":0,"x_max":0,"o":"m 42 35 b 121 -8 65 4 79 -8 b 192 17 147 -8 179 -6 b 189 93 192 35 189 64 b 222 236 189 150 194 215 b 242 254 226 239 240 251 b 346 388 275 303 294 351 b 365 296 363 388 363 322 b 367 275 365 294 367 282 b 354 106 365 218 354 161 b 360 96 354 101 356 97 l 372 96 b 447 86 428 96 421 86 b 531 136 476 86 531 104 b 549 339 543 218 549 258 b 397 549 549 442 529 549 b 243 499 344 549 289 526 b 242 619 242 538 242 579 b 246 842 242 694 243 771 b 175 872 221 854 207 872 b 100 865 144 872 131 865 l 85 865 l 67 849 b 61 751 63 829 61 783 b 64 557 61 686 64 621 b 42 35 64 382 42 211 z "},"i":{"ha":331,"x_min":0,"x_max":0,"o":"m 49 -22 b 97 -50 58 -40 75 -51 b 231 18 183 -31 118 -4 b 272 346 265 22 272 322 b 275 431 272 360 275 418 l 275 438 b 196 504 275 478 232 504 b 163 499 185 504 175 499 b 113 507 144 499 131 507 b 69 468 92 507 74 489 l 42 56 l 42 49 z m 99 658 b 175 596 99 608 128 596 b 289 743 249 596 289 671 b 190 849 289 794 244 849 b 99 658 147 849 100 701 z "},"j":{"ha":301,"x_min":0,"x_max":0,"o":"m -153 -281 b -62 -332 -153 -324 -125 -332 b 186 -185 40 -332 151 -293 b 215 -81 194 -158 214 -85 l 257 461 b 168 517 257 506 188 517 l 143 503 b 69 467 110 499 82 508 b 60 322 69 399 60 347 b 67 92 60 246 67 168 b 26 -128 60 10 74 -75 b -153 -281 -26 -186 -150 -187 z m 97 772 b 167 703 97 725 117 703 b 260 799 215 703 260 747 b 165 872 260 846 203 872 b 97 772 114 872 99 815 z "},"k":{"ha":640,"x_min":0,"x_max":0,"o":"m 51 -24 b 96 -44 58 -37 82 -44 b 207 -1 110 -44 201 -6 b 215 32 214 3 215 22 b 211 118 215 58 211 89 b 244 158 211 126 201 158 b 336 86 247 158 300 115 b 524 0 368 53 465 0 b 599 61 564 0 597 19 b 592 71 599 67 597 68 b 400 186 535 97 450 144 b 343 246 382 200 343 242 l 343 253 l 544 499 b 553 517 549 508 553 513 b 483 579 553 549 503 571 b 357 485 438 563 386 514 b 217 333 335 463 236 357 l 217 415 b 257 810 221 546 257 678 b 179 865 257 843 211 865 b 157 861 172 865 167 861 b 118 868 144 861 132 867 b 75 824 92 868 83 846 l 44 397 b 42 229 44 346 42 285 b 51 -24 42 144 44 61 z "},"l":{"ha":283,"x_min":0,"x_max":0,"o":"m 64 19 b 114 -14 75 -3 90 -15 b 240 44 161 1 238 15 b 242 101 240 51 242 92 b 219 385 242 124 233 288 l 221 883 b 86 958 222 899 110 958 b 44 750 28 958 44 831 b 65 114 44 538 65 326 b 64 19 65 82 65 51 z "},"m":{"ha":1075,"x_min":0,"x_max":0,"o":"m 124 67 b 226 22 121 33 203 24 b 299 76 260 19 296 44 l 285 331 b 307 371 288 349 297 360 b 385 404 329 410 339 408 b 476 122 443 400 494 367 b 506 92 474 94 486 100 b 543 19 538 76 510 22 b 593 38 561 18 575 29 b 633 86 626 54 632 63 b 639 344 638 161 633 261 b 665 339 642 344 658 340 b 696 351 668 339 689 351 b 704 343 701 350 703 349 b 831 418 753 350 776 424 b 847 289 863 415 850 336 b 819 92 843 213 839 168 b 846 69 822 72 835 71 b 860 68 850 69 856 68 b 893 51 875 67 878 53 b 1031 343 1008 42 1024 231 b 914 592 1038 444 1028 582 b 611 489 833 599 658 556 l 606 489 b 444 581 571 550 506 575 b 261 506 372 586 311 561 l 256 507 b 156 624 218 628 199 590 l 149 628 b 79 668 128 644 100 665 b 43 596 43 671 43 596 b 46 553 42 582 42 569 b 124 67 78 407 115 221 z "},"n":{"ha":693,"x_min":0,"x_max":0,"o":"m 99 75 b 131 19 99 51 100 19 b 253 75 163 19 250 21 l 267 339 b 461 456 268 372 435 456 b 483 417 492 456 483 424 l 483 400 l 444 129 b 443 121 444 128 443 122 b 465 100 443 107 454 100 b 475 101 467 100 475 101 b 568 119 490 103 554 118 b 625 190 578 142 614 138 b 651 390 644 292 651 379 b 451 601 651 508 558 601 b 281 538 390 601 332 571 l 271 539 l 271 608 b 175 664 271 624 210 664 b 126 601 147 664 136 621 b 71 511 113 575 71 581 b 44 213 65 467 47 257 b 42 171 44 211 42 181 b 56 75 42 144 42 75 z "},"o":{"ha":610,"x_min":0,"x_max":0,"o":"m 42 324 b 257 56 42 156 101 56 b 568 414 424 56 568 228 b 414 671 568 518 518 653 l 353 681 b 289 701 331 685 314 701 b 54 439 186 701 88 529 b 42 357 43 407 42 385 z m 183 368 l 183 383 b 272 500 183 407 239 464 b 343 542 292 521 315 542 b 419 413 406 540 419 472 b 276 214 419 328 361 214 b 183 368 213 214 183 308 z "},"p":{"ha":664,"x_min":0,"x_max":0,"o":"m 42 -183 b 85 -212 51 -201 68 -211 b 158 -171 110 -212 143 -186 b 228 -68 219 -132 221 -185 b 235 119 229 -40 235 92 l 240 126 b 428 194 301 138 376 144 b 447 214 435 201 440 208 b 622 508 547 311 622 383 b 444 660 622 622 535 660 b 299 632 389 660 354 647 b 293 631 299 632 294 631 b 210 694 288 631 264 694 b 157 660 185 694 178 660 b 108 681 140 660 124 681 b 71 633 85 681 71 656 b 42 -183 71 363 42 88 z m 261 431 b 297 488 265 449 294 482 b 399 521 326 521 360 521 l 403 521 b 454 500 426 521 440 521 b 342 321 454 419 401 357 b 254 279 321 308 260 279 l 247 279 b 261 431 247 292 253 382 z "},"q":{"ha":576,"x_min":0,"x_max":0,"o":"m 368 -132 l 411 -133 b 451 -175 432 -135 403 -175 b 535 -143 474 -175 535 -175 b 515 139 535 -49 515 44 b 524 393 517 151 524 303 b 519 588 524 411 519 568 b 432 697 519 654 494 689 b 388 713 418 700 401 713 b 340 651 361 713 346 676 b 42 338 196 633 42 515 b 278 143 42 185 161 143 b 333 146 296 143 315 143 b 338 139 333 144 338 140 l 344 103 l 361 -125 z m 190 375 l 190 390 b 328 499 190 435 281 499 b 333 308 329 469 333 331 b 236 269 333 282 251 269 b 190 375 211 269 190 350 z "},"r":{"ha":593,"x_min":0,"x_max":0,"o":"m 58 526 l 63 21 b 113 -12 63 -10 88 -11 b 157 -3 118 -12 150 -4 b 190 64 194 8 176 43 b 263 154 215 103 257 36 b 263 344 265 218 260 281 b 265 372 263 353 264 363 b 429 468 269 442 369 469 b 478 447 439 458 457 447 b 507 464 476 447 501 464 b 551 531 542 476 547 461 b 417 651 535 603 497 651 b 268 572 358 651 311 610 l 256 560 l 249 561 b 247 569 249 564 247 567 b 246 572 247 571 246 571 b 178 647 249 622 215 631 b 149 679 175 650 151 678 b 82 689 135 693 96 689 b 43 651 63 689 44 667 b 43 643 42 649 43 644 b 58 526 44 625 54 543 z "},"s":{"ha":547,"x_min":0,"x_max":0,"o":"m 97 -101 b 140 -136 97 -118 131 -136 b 221 -118 164 -136 197 -126 b 446 140 336 -60 446 -7 b 249 375 446 271 360 324 l 249 396 b 504 583 228 528 510 561 b 493 601 504 588 493 599 b 494 626 493 607 494 621 b 332 708 494 671 349 707 b 42 400 214 708 42 526 b 293 133 42 324 294 146 b 179 28 292 89 203 56 b 149 -28 167 13 156 -18 b 97 -101 121 -56 100 -35 z "},"t":{"ha":644,"x_min":0,"x_max":0,"o":"m 324 36 l 324 31 b 343 -19 324 15 324 -19 b 381 -6 364 -19 353 -15 b 438 51 425 8 433 -6 b 432 531 438 124 432 469 b 453 553 433 542 442 553 l 568 560 b 603 614 593 561 603 596 b 553 654 603 640 579 642 l 553 660 b 435 733 553 724 488 729 b 433 824 433 764 433 793 b 439 968 433 872 435 921 b 353 1011 435 1004 356 1011 b 258 982 324 1011 261 1010 l 226 722 b 42 657 226 688 42 750 b 140 554 42 624 118 557 b 232 543 153 550 219 543 l 250 54 l 263 39 z "},"u":{"ha":761,"x_min":0,"x_max":0,"o":"m 43 288 b 42 251 42 275 42 263 b 217 33 42 149 71 33 b 479 175 324 33 411 92 l 486 174 l 528 58 b 556 50 533 47 546 50 b 718 97 588 50 701 71 b 719 153 718 118 719 135 b 629 529 719 281 688 418 b 507 582 608 568 549 582 b 454 501 464 582 454 542 b 457 408 454 471 457 440 b 456 371 457 396 456 383 b 400 299 447 358 408 308 b 283 224 386 283 286 221 b 253 325 257 229 253 288 b 271 572 253 411 271 479 b 193 607 254 596 214 607 b 96 526 140 607 108 572 l 88 492 b 43 288 57 379 42 324 z "},"v":{"ha":744,"x_min":0,"x_max":0,"o":"m 42 557 b 83 431 42 528 76 446 l 303 14 b 344 -22 319 -19 317 -22 l 349 -22 b 403 -1 365 -22 392 -22 l 694 521 b 703 585 706 540 699 556 b 685 610 701 588 685 606 b 671 631 685 614 671 617 b 626 672 671 646 646 672 b 607 660 621 672 614 665 b 604 657 606 660 606 657 b 372 311 524 556 436 446 b 361 304 371 303 367 304 b 135 636 331 389 219 636 b 42 557 101 636 43 614 z "},"w":{"ha":956,"x_min":0,"x_max":0,"o":"m 93 81 b 140 53 94 57 126 53 b 232 106 183 53 208 64 l 431 281 b 450 286 446 293 451 282 b 708 107 510 208 596 107 b 801 165 743 107 792 126 l 893 547 b 914 596 901 563 914 597 b 828 638 914 631 843 638 b 751 571 782 638 771 614 b 647 344 735 539 660 378 l 640 344 l 504 492 b 446 514 488 508 468 513 b 431 513 443 514 431 514 l 279 367 b 268 361 278 364 269 361 b 261 368 267 363 261 365 l 217 590 b 129 625 206 628 126 622 b 111 618 125 624 113 618 b 83 626 103 618 103 626 b 42 599 67 626 42 618 z "},"x":{"ha":710,"x_min":0,"x_max":0,"o":"m 146 108 b 243 40 146 74 214 40 b 350 143 303 40 321 93 l 356 143 l 478 36 b 519 29 486 31 508 29 b 601 92 575 29 596 89 b 650 132 622 100 650 94 b 644 149 650 139 649 144 l 483 318 b 664 597 540 421 604 507 b 668 624 664 601 668 624 b 592 686 668 665 632 686 b 403 468 508 686 468 565 l 383 447 b 219 617 332 492 308 613 b 175 592 206 617 181 596 b 85 635 160 601 110 638 l 83 633 b 42 585 69 625 42 606 b 122 428 42 565 100 449 b 229 282 136 404 211 303 l 229 268 b 146 108 188 218 149 172 z "},"y":{"ha":674,"x_min":0,"x_max":0,"o":"m 143 -133 b 189 -172 142 -161 169 -172 b 235 -161 206 -174 219 -169 b 347 -37 268 -131 321 -78 l 514 219 b 575 363 521 231 564 332 b 632 551 585 390 626 522 b 569 615 625 578 599 614 b 532 597 554 615 549 611 b 508 604 525 604 515 604 b 469 575 492 606 474 593 l 410 375 b 404 369 410 374 406 369 b 393 376 403 369 396 375 l 339 439 b 247 590 324 461 261 565 b 172 635 232 613 196 635 b 131 611 154 636 146 611 l 128 611 b 78 632 121 615 86 628 b 42 588 61 626 42 606 b 53 553 42 574 44 571 l 106 453 l 108 449 b 161 378 121 432 153 386 b 319 208 185 353 294 232 l 319 204 b 224 65 319 189 244 86 b 154 -6 218 58 163 1 b 142 -35 142 -18 142 -19 b 169 -85 140 -58 151 -69 b 143 -133 154 -94 143 -115 z "},"z":{"ha":661,"x_min":0,"x_max":0,"o":"m 119 19 b 193 -40 117 -32 164 -42 b 261 -28 204 -40 251 -32 l 581 79 b 586 88 581 79 585 83 b 618 132 592 93 614 125 l 618 140 b 549 246 619 168 571 246 b 338 232 476 250 407 231 l 338 249 l 436 467 b 471 606 451 500 469 558 b 400 701 472 649 432 700 l 393 701 l 354 686 b 243 682 353 686 274 683 b 232 683 242 682 232 686 l 89 658 b 86 657 88 658 88 657 b 43 610 71 649 43 633 b 157 485 42 531 108 488 b 263 507 200 483 217 486 l 263 492 b 125 53 196 344 164 211 l 121 35 b 119 19 121 33 119 21 z "},"À":{"ha":729,"x_min":0,"x_max":0,"o":"m 115 10 b 160 -8 129 -1 140 -8 b 225 31 189 -8 219 0 b 249 151 228 50 244 133 l 254 157 b 467 165 254 156 422 165 b 476 158 471 165 474 164 l 510 15 b 526 4 513 6 518 4 b 688 76 543 4 686 63 l 688 117 l 497 922 b 447 953 493 950 468 943 b 368 978 415 967 413 978 b 289 950 356 978 294 968 b 42 54 43 178 42 100 l 42 46 b 58 11 42 38 47 11 z m 296 346 b 297 354 296 347 297 354 l 350 526 b 363 543 351 532 357 540 l 368 532 l 428 347 b 324 332 439 332 356 332 l 318 332 b 296 346 307 332 296 332 z m 449 682 b 433 833 449 685 433 831 b 492 488 440 824 492 500 l 492 483 b 449 679 479 483 449 669 z m 478 1078 b 463 1096 474 1086 471 1090 b 354 1167 446 1106 371 1156 b 304 1186 338 1179 326 1197 b 272 1133 292 1181 265 1146 b 424 1031 300 1078 365 1035 b 444 1028 426 1031 442 1026 b 451 1029 444 1028 449 1028 b 478 1078 467 1036 486 1061 z "},"Á":{"ha":729,"x_min":0,"x_max":0,"o":"m 115 10 b 160 -8 129 -1 140 -8 b 225 31 189 -8 219 0 b 249 151 228 50 244 133 l 254 157 b 467 165 254 156 422 165 b 476 158 471 165 474 164 l 510 15 b 526 4 513 6 518 4 b 688 76 543 4 686 63 l 688 117 l 497 922 b 447 953 493 950 468 943 b 368 978 415 967 413 978 b 289 950 356 978 294 968 b 42 54 43 178 42 100 l 42 46 b 58 11 42 38 47 11 z m 296 346 b 297 354 296 347 297 354 l 350 526 b 363 543 351 532 357 540 l 368 532 l 428 347 b 324 332 439 332 356 332 l 318 332 b 296 346 307 332 296 332 z m 449 682 b 433 833 449 685 433 831 b 492 488 440 824 492 500 l 492 483 b 449 679 479 483 449 669 z m 274 1078 b 300 1029 265 1061 285 1036 b 307 1028 303 1028 307 1028 b 328 1031 310 1026 325 1031 b 479 1133 386 1035 451 1078 b 447 1186 486 1146 460 1181 b 397 1167 425 1197 414 1179 b 289 1096 381 1156 306 1106 b 274 1078 281 1090 278 1086 z "},"Â":{"ha":729,"x_min":0,"x_max":0,"o":"m 115 10 b 160 -8 129 -1 140 -8 b 225 31 189 -8 219 0 b 249 151 228 50 244 133 l 254 157 b 467 165 254 156 422 165 b 476 158 471 165 474 164 l 510 15 b 526 4 513 6 518 4 b 688 76 543 4 686 63 l 688 117 l 497 922 b 447 953 493 950 468 943 b 368 978 415 967 413 978 b 289 950 356 978 294 968 b 42 54 43 178 42 100 l 42 46 b 58 11 42 38 47 11 z m 229 1065 b 267 1026 229 1044 246 1026 b 308 1047 282 1026 297 1038 b 383 1110 322 1060 369 1097 l 388 1110 b 410 1090 388 1110 404 1096 b 490 1042 435 1069 457 1046 b 531 1076 507 1042 531 1060 l 531 1078 b 526 1103 529 1082 526 1099 b 353 1203 482 1150 421 1203 b 331 1199 346 1203 336 1204 b 269 1135 318 1186 281 1149 b 264 1131 268 1133 265 1133 l 263 1129 b 229 1065 250 1114 229 1088 z m 296 346 b 297 354 296 347 297 354 l 350 526 b 363 543 351 532 357 540 l 368 532 l 428 347 b 324 332 439 332 356 332 l 318 332 b 296 346 307 332 296 332 z m 449 682 b 433 833 449 685 433 831 b 492 488 440 824 492 500 l 492 483 b 449 679 479 483 449 669 z "},"Ã":{"ha":729,"x_min":0,"x_max":0,"o":"m 115 10 b 160 -8 129 -1 140 -8 b 225 31 189 -8 219 0 b 249 151 228 50 244 133 l 254 157 b 467 165 254 156 422 165 b 476 158 471 165 474 164 l 510 15 b 526 4 513 6 518 4 b 688 76 543 4 686 63 l 688 117 l 497 922 b 447 953 493 950 468 943 b 368 978 415 967 413 978 b 289 950 356 978 294 968 b 42 54 43 178 42 100 l 42 46 b 58 11 42 38 47 11 z m 325 1108 b 432 1031 349 1063 378 1031 b 540 1151 493 1031 540 1094 b 538 1175 540 1154 538 1171 b 533 1181 536 1176 533 1181 b 481 1189 514 1185 499 1189 b 432 1115 453 1189 465 1133 l 428 1115 b 376 1167 415 1115 396 1157 b 290 1185 347 1182 321 1185 b 217 1086 240 1185 217 1126 b 264 1039 217 1061 236 1033 b 300 1099 299 1046 296 1071 l 314 1113 b 325 1108 318 1113 321 1110 z m 296 346 b 297 354 296 347 297 354 l 350 526 b 363 543 351 532 357 540 l 368 532 l 428 347 b 324 332 439 332 356 332 l 318 332 b 296 346 307 332 296 332 z m 449 682 b 433 833 449 685 433 831 b 492 488 440 824 492 500 l 492 483 b 449 679 479 483 449 669 z "},"Ä":{"ha":729,"x_min":0,"x_max":0,"o":"m 115 10 b 160 -8 129 -1 140 -8 b 225 31 189 -8 219 0 b 249 151 228 50 244 133 l 254 157 b 467 165 254 156 422 165 b 476 158 471 165 474 164 l 510 15 b 526 4 513 6 518 4 b 688 76 543 4 686 63 l 688 117 l 497 922 b 447 953 493 950 468 943 b 368 978 415 967 413 978 b 289 950 356 978 294 968 b 42 54 43 178 42 100 l 42 46 b 58 11 42 38 47 11 z m 296 346 b 297 354 296 347 297 354 l 350 526 b 363 543 351 532 357 540 l 368 532 l 428 347 b 324 332 439 332 356 332 l 318 332 b 296 346 307 332 296 332 z m 449 682 b 433 833 449 685 433 831 b 492 488 440 824 492 500 l 492 483 b 449 679 479 483 449 669 z m 411 1049 b 458 1021 424 1028 435 1021 b 531 1108 504 1021 531 1065 b 454 1154 531 1138 476 1154 b 422 1101 425 1154 428 1119 b 411 1065 421 1097 411 1069 b 410 1057 410 1065 410 1060 b 411 1049 410 1057 410 1050 z m 222 1074 b 276 1033 222 1043 251 1033 b 346 1089 313 1033 346 1049 b 271 1157 346 1125 296 1147 b 265 1158 271 1157 267 1158 b 247 1146 257 1158 251 1151 b 222 1074 238 1125 222 1097 z "},"Å":{"ha":729,"x_min":0,"x_max":0,"o":"m 115 10 b 160 -8 129 -1 140 -8 b 225 31 189 -8 219 0 b 249 151 228 50 244 133 l 254 157 b 467 165 254 156 422 165 b 476 158 471 165 474 164 l 510 15 b 526 4 513 6 518 4 b 688 76 543 4 686 63 l 688 117 l 497 922 b 447 953 493 950 468 943 b 368 978 415 967 413 978 b 289 950 356 978 294 968 b 42 54 43 178 42 100 l 42 46 b 58 11 42 38 47 11 z m 272 1128 b 376 1036 272 1072 325 1036 b 476 1147 429 1036 476 1096 b 383 1232 476 1201 433 1232 l 371 1232 b 272 1128 314 1221 272 1194 z m 296 346 b 297 354 296 347 297 354 l 350 526 b 363 543 351 532 357 540 l 368 532 l 428 347 b 324 332 439 332 356 332 l 318 332 b 296 346 307 332 296 332 z m 339 1136 b 383 1175 339 1164 358 1175 b 408 1147 400 1175 408 1163 b 363 1101 408 1124 385 1101 b 339 1136 344 1101 339 1122 z m 449 682 b 433 833 449 685 433 831 b 492 488 440 824 492 500 l 492 483 b 449 679 479 483 449 669 z "},"Æ":{"ha":971,"x_min":0,"x_max":0,"o":"m 500 -7 b 574 22 528 -7 558 31 b 649 14 585 21 636 17 l 875 35 b 929 72 899 38 929 46 b 900 108 929 96 900 93 b 844 172 900 164 878 150 l 656 192 b 644 442 647 192 644 436 b 651 451 644 446 644 450 l 806 496 b 836 576 821 500 836 560 b 749 615 836 614 767 615 b 650 604 715 615 683 604 b 642 618 644 606 642 607 l 644 800 b 656 804 644 800 651 803 b 881 879 744 829 881 825 b 879 888 881 882 879 885 b 914 933 900 897 914 910 b 783 1008 914 974 817 1008 l 590 1011 b 392 950 428 997 396 963 b 43 54 57 178 49 100 l 42 46 b 54 11 42 38 44 11 l 111 10 b 153 -8 124 -1 133 -8 b 222 31 182 -8 214 0 l 267 157 b 450 164 265 156 385 163 b 500 -7 457 103 451 -7 z m 329 346 b 332 354 329 347 332 354 l 404 526 b 418 543 406 532 413 540 l 451 621 l 450 338 b 356 332 428 332 378 332 l 350 332 b 329 346 339 332 328 332 z "},"Ç":{"ha":607,"x_min":0,"x_max":0,"o":"m 200 -225 b 243 -250 200 -246 225 -250 l 247 -250 b 274 -243 260 -250 261 -250 b 407 -103 331 -211 407 -169 b 363 -51 407 -74 382 -74 b 364 -12 363 -39 364 -25 b 514 54 421 -10 474 7 b 513 60 513 56 513 57 b 558 135 513 83 558 64 b 478 236 549 199 542 236 b 364 175 431 236 424 175 b 246 446 279 175 246 301 b 379 857 246 636 304 857 b 403 844 388 857 403 857 l 401 699 b 432 681 401 690 429 681 b 549 728 490 681 496 714 b 564 726 553 728 564 725 b 361 978 575 939 482 996 b 94 753 246 933 142 879 b 42 454 56 651 42 563 b 236 1 42 253 63 56 l 236 -74 b 258 -90 236 -75 250 -86 l 282 -104 b 321 -114 289 -107 321 -111 b 200 -225 306 -168 200 -182 z "},"È":{"ha":572,"x_min":0,"x_max":0,"o":"m 47 885 b 58 208 53 607 58 226 b 101 -21 63 144 43 -21 b 175 8 129 -21 160 17 b 250 0 186 7 238 3 l 476 21 b 531 58 500 24 531 32 b 501 94 531 82 501 79 b 446 158 501 150 479 136 l 257 178 b 246 428 249 178 246 422 b 253 438 246 432 246 436 l 407 482 b 438 563 422 486 438 546 b 350 601 438 600 368 601 b 251 590 317 601 285 590 b 243 604 246 592 243 593 l 246 786 b 257 790 246 786 253 789 b 482 865 346 815 482 811 b 481 874 482 868 481 871 b 515 919 501 883 515 896 b 385 994 515 960 418 994 l 192 997 b 42 904 156 997 42 954 b 47 885 42 897 42 890 z m 369 1103 b 354 1121 365 1111 363 1115 b 246 1192 338 1131 263 1181 b 196 1211 229 1204 218 1222 b 164 1158 183 1206 157 1171 b 315 1056 192 1103 257 1060 b 336 1053 318 1056 333 1051 b 343 1054 336 1053 340 1053 b 369 1103 358 1061 378 1086 z "},"É":{"ha":572,"x_min":0,"x_max":0,"o":"m 47 885 b 58 208 53 607 58 226 b 101 -21 63 144 43 -21 b 175 8 129 -21 160 17 b 250 0 186 7 238 3 l 476 21 b 531 58 500 24 531 32 b 501 94 531 82 501 79 b 446 158 501 150 479 136 l 257 178 b 246 428 249 178 246 422 b 253 438 246 432 246 436 l 407 482 b 438 563 422 486 438 546 b 350 601 438 600 368 601 b 251 590 317 601 285 590 b 243 604 246 592 243 593 l 246 786 b 257 790 246 786 253 789 b 482 865 346 815 482 811 b 481 874 482 868 481 871 b 515 919 501 883 515 896 b 385 994 515 960 418 994 l 192 997 b 42 904 156 997 42 954 b 47 885 42 897 42 890 z m 165 1103 b 192 1054 157 1086 176 1061 b 199 1053 194 1053 199 1053 b 219 1056 201 1051 217 1056 b 371 1158 278 1060 343 1103 b 339 1211 378 1171 351 1206 b 289 1192 317 1222 306 1204 b 181 1121 272 1181 197 1131 b 165 1103 172 1115 169 1111 z "},"Ê":{"ha":572,"x_min":0,"x_max":0,"o":"m 47 885 b 58 208 53 607 58 226 b 101 -21 63 144 43 -21 b 175 8 129 -21 160 17 b 250 0 186 7 238 3 l 476 21 b 531 58 500 24 531 32 b 501 94 531 82 501 79 b 446 158 501 150 479 136 l 257 178 b 246 428 249 178 246 422 b 253 438 246 432 246 436 l 407 482 b 438 563 422 486 438 546 b 350 601 438 600 368 601 b 251 590 317 601 285 590 b 243 604 246 592 243 593 l 246 786 b 257 790 246 786 253 789 b 482 865 346 815 482 811 b 481 874 482 868 481 871 b 515 919 501 883 515 896 b 385 994 515 960 418 994 l 192 997 b 42 904 156 997 42 954 b 47 885 42 897 42 890 z m 121 1090 b 158 1051 121 1069 138 1051 b 200 1072 174 1051 189 1063 b 275 1135 214 1085 261 1122 l 279 1135 b 301 1115 279 1135 296 1121 b 382 1067 326 1094 349 1071 b 422 1101 399 1067 422 1085 l 422 1103 b 418 1128 421 1107 418 1124 b 244 1228 374 1175 313 1228 b 222 1224 238 1228 228 1229 b 161 1160 210 1211 172 1174 b 156 1156 160 1158 157 1158 l 154 1154 b 121 1090 142 1139 121 1113 z "},"Ë":{"ha":572,"x_min":0,"x_max":0,"o":"m 47 885 b 58 208 53 607 58 226 b 101 -21 63 144 43 -21 b 175 8 129 -21 160 17 b 250 0 186 7 238 3 l 476 21 b 531 58 500 24 531 32 b 501 94 531 82 501 79 b 446 158 501 150 479 136 l 257 178 b 246 428 249 178 246 422 b 253 438 246 432 246 436 l 407 482 b 438 563 422 486 438 546 b 350 601 438 600 368 601 b 251 590 317 601 285 590 b 243 604 246 592 243 593 l 246 786 b 257 790 246 786 253 789 b 482 865 346 815 482 811 b 481 874 482 868 481 871 b 515 919 501 883 515 896 b 385 994 515 960 418 994 l 192 997 b 42 904 156 997 42 954 b 47 885 42 897 42 890 z m 303 1074 b 350 1046 315 1053 326 1046 b 422 1133 396 1046 422 1090 b 346 1179 422 1163 368 1179 b 314 1126 317 1179 319 1144 b 303 1090 313 1122 303 1094 b 301 1082 301 1090 301 1085 b 303 1074 301 1082 301 1075 z m 114 1099 b 168 1058 114 1068 143 1058 b 238 1114 204 1058 238 1074 b 163 1182 238 1150 188 1172 b 157 1183 163 1182 158 1183 b 139 1171 149 1183 143 1176 b 114 1099 129 1150 114 1122 z "},"Ì":{"ha":306,"x_min":0,"x_max":0,"o":"m 44 43 b 150 17 47 15 143 15 b 215 76 165 17 213 22 l 264 985 l 247 1004 b 131 1025 246 1004 161 1025 b 92 1000 121 1025 93 1014 l 61 519 b 63 490 61 510 63 500 b 43 257 63 414 44 333 b 42 150 42 218 42 183 b 44 43 42 115 42 82 z m 292 1125 b 276 1143 288 1133 285 1138 b 168 1214 260 1153 185 1203 b 118 1233 151 1226 140 1244 b 86 1181 106 1228 79 1193 b 238 1078 114 1125 179 1082 b 258 1075 240 1078 256 1074 b 265 1076 258 1075 263 1075 b 292 1125 281 1083 300 1108 z "},"Í":{"ha":306,"x_min":0,"x_max":0,"o":"m 44 43 b 150 17 47 15 143 15 b 215 76 165 17 213 22 l 264 985 l 247 1004 b 131 1025 246 1004 161 1025 b 92 1000 121 1025 93 1014 l 61 519 b 63 490 61 510 63 500 b 43 257 63 414 44 333 b 42 150 42 218 42 183 b 44 43 42 115 42 82 z m 88 1125 b 114 1076 79 1108 99 1083 b 121 1075 117 1075 121 1075 b 142 1078 124 1074 139 1078 b 293 1181 200 1082 265 1125 b 261 1233 300 1193 274 1228 b 211 1214 239 1244 228 1226 b 103 1143 194 1203 119 1153 b 88 1125 94 1138 92 1133 z "},"Î":{"ha":306,"x_min":0,"x_max":0,"o":"m 44 43 b 150 17 47 15 143 15 b 215 76 165 17 213 22 l 264 985 l 247 1004 b 131 1025 246 1004 161 1025 b 92 1000 121 1025 93 1014 l 61 519 b 63 490 61 510 63 500 b 43 257 63 414 44 333 b 42 150 42 218 42 183 b 44 43 42 115 42 82 z m 43 1113 b 81 1074 43 1092 60 1074 b 122 1094 96 1074 111 1085 b 197 1157 136 1107 183 1144 l 201 1157 b 224 1138 201 1157 218 1143 b 304 1089 249 1117 271 1093 b 344 1124 321 1089 344 1107 l 344 1125 b 340 1150 343 1129 340 1146 b 167 1250 296 1197 235 1250 b 144 1246 160 1250 150 1251 b 83 1182 132 1233 94 1196 b 78 1178 82 1181 79 1181 l 76 1176 b 43 1113 64 1161 43 1135 z "},"Ï":{"ha":306,"x_min":0,"x_max":0,"o":"m 44 43 b 150 17 47 15 143 15 b 215 76 165 17 213 22 l 264 985 l 247 1004 b 131 1025 246 1004 161 1025 b 92 1000 121 1025 93 1014 l 61 519 b 63 490 61 510 63 500 b 43 257 63 414 44 333 b 42 150 42 218 42 183 b 44 43 42 115 42 82 z m 225 1096 b 272 1068 238 1075 249 1068 b 344 1156 318 1068 344 1113 b 268 1201 344 1185 290 1201 b 236 1149 239 1201 242 1167 b 225 1113 235 1144 225 1117 b 224 1104 224 1113 224 1107 b 225 1096 224 1104 224 1097 z m 36 1121 b 90 1081 36 1090 65 1081 b 160 1136 126 1081 160 1096 b 85 1204 160 1172 110 1194 b 79 1206 85 1204 81 1206 b 61 1193 71 1206 65 1199 b 36 1121 51 1172 36 1144 z "},"Ò":{"ha":751,"x_min":0,"x_max":0,"o":"m 42 474 b 353 -36 42 285 133 -31 b 389 -29 365 -36 375 -35 b 710 596 621 68 710 346 b 703 651 710 613 708 629 b 456 994 658 844 619 913 b 407 996 439 994 408 996 b 42 474 189 996 46 701 z m 240 540 b 413 857 243 667 267 857 b 464 822 431 857 456 838 b 524 567 513 729 524 664 b 478 299 524 468 519 428 b 381 190 465 258 424 190 b 314 257 347 190 326 232 b 313 261 314 258 313 260 b 240 528 269 350 239 429 z m 301 97 l 397 97 l 404 88 b 347 68 392 68 367 68 l 340 68 b 301 90 329 72 301 88 z m 503 1097 b 488 1115 499 1106 496 1110 b 379 1186 471 1125 396 1175 b 329 1206 363 1199 351 1217 b 297 1153 317 1200 290 1165 b 449 1050 325 1097 390 1054 b 469 1047 451 1050 467 1046 b 476 1049 469 1047 474 1047 b 503 1097 492 1056 511 1081 z "},"Ó":{"ha":751,"x_min":0,"x_max":0,"o":"m 42 474 b 353 -36 42 285 133 -31 b 389 -29 365 -36 375 -35 b 710 596 621 68 710 346 b 703 651 710 613 708 629 b 456 994 658 844 619 913 b 407 996 439 994 408 996 b 42 474 189 996 46 701 z m 240 540 b 413 857 243 667 267 857 b 464 822 431 857 456 838 b 524 567 513 729 524 664 b 478 299 524 468 519 428 b 381 190 465 258 424 190 b 314 257 347 190 326 232 b 313 261 314 258 313 260 b 240 528 269 350 239 429 z m 301 97 l 397 97 l 404 88 b 347 68 392 68 367 68 l 340 68 b 301 90 329 72 301 88 z m 299 1097 b 325 1049 290 1081 310 1056 b 332 1047 328 1047 332 1047 b 353 1050 335 1046 350 1050 b 504 1153 411 1054 476 1097 b 472 1206 511 1165 485 1200 b 422 1186 450 1217 439 1199 b 314 1115 406 1175 331 1125 b 299 1097 306 1110 303 1106 z "},"Ô":{"ha":751,"x_min":0,"x_max":0,"o":"m 42 474 b 353 -36 42 285 133 -31 b 389 -29 365 -36 375 -35 b 710 596 621 68 710 346 b 703 651 710 613 708 629 b 456 994 658 844 619 913 b 407 996 439 994 408 996 b 42 474 189 996 46 701 z m 240 540 b 413 857 243 667 267 857 b 464 822 431 857 456 838 b 524 567 513 729 524 664 b 478 299 524 468 519 428 b 381 190 465 258 424 190 b 314 257 347 190 326 232 b 313 261 314 258 313 260 b 240 528 269 350 239 429 z m 254 1085 b 292 1046 254 1064 271 1046 b 333 1067 307 1046 322 1057 b 408 1129 347 1079 394 1117 l 413 1129 b 435 1110 413 1129 429 1115 b 515 1061 460 1089 482 1065 b 556 1096 532 1061 556 1079 l 556 1097 b 551 1122 554 1101 551 1118 b 378 1222 507 1169 446 1222 b 356 1218 371 1222 361 1224 b 294 1154 343 1206 306 1168 b 289 1150 293 1153 290 1153 l 288 1149 b 254 1085 275 1133 254 1107 z m 301 97 l 397 97 l 404 88 b 347 68 392 68 367 68 l 340 68 b 301 90 329 72 301 88 z "},"Õ":{"ha":751,"x_min":0,"x_max":0,"o":"m 42 474 b 353 -36 42 285 133 -31 b 389 -29 365 -36 375 -35 b 710 596 621 68 710 346 b 703 651 710 613 708 629 b 456 994 658 844 619 913 b 407 996 439 994 408 996 b 42 474 189 996 46 701 z m 240 540 b 413 857 243 667 267 857 b 464 822 431 857 456 838 b 524 567 513 729 524 664 b 478 299 524 468 519 428 b 381 190 465 258 424 190 b 314 257 347 190 326 232 b 313 261 314 258 313 260 b 240 528 269 350 239 429 z m 350 1128 b 457 1050 374 1082 403 1050 b 565 1171 518 1050 565 1114 b 563 1194 565 1174 563 1190 b 558 1200 561 1196 558 1200 b 506 1208 539 1204 524 1208 b 457 1135 478 1208 490 1153 l 453 1135 b 401 1186 440 1135 421 1176 b 315 1204 372 1201 346 1204 b 242 1106 265 1204 242 1146 b 289 1058 242 1081 261 1053 b 325 1118 324 1065 321 1090 l 339 1132 b 350 1128 343 1132 346 1129 z m 301 97 l 397 97 l 404 88 b 347 68 392 68 367 68 l 340 68 b 301 90 329 72 301 88 z "},"Ö":{"ha":751,"x_min":0,"x_max":0,"o":"m 42 474 b 353 -36 42 285 133 -31 b 389 -29 365 -36 375 -35 b 710 596 621 68 710 346 b 703 651 710 613 708 629 b 456 994 658 844 619 913 b 407 996 439 994 408 996 b 42 474 189 996 46 701 z m 240 540 b 413 857 243 667 267 857 b 464 822 431 857 456 838 b 524 567 513 729 524 664 b 478 299 524 468 519 428 b 381 190 465 258 424 190 b 314 257 347 190 326 232 b 313 261 314 258 313 260 b 240 528 269 350 239 429 z m 301 97 l 397 97 l 404 88 b 347 68 392 68 367 68 l 340 68 b 301 90 329 72 301 88 z m 436 1068 b 483 1040 449 1047 460 1040 b 556 1128 529 1040 556 1085 b 479 1174 556 1157 501 1174 b 447 1121 450 1174 453 1139 b 436 1085 446 1117 436 1089 b 435 1076 435 1085 435 1079 b 436 1068 435 1076 435 1069 z m 247 1093 b 301 1053 247 1063 276 1053 b 371 1108 338 1053 371 1068 b 296 1176 371 1144 321 1167 b 290 1178 296 1176 292 1178 b 272 1165 282 1178 276 1171 b 247 1093 263 1144 247 1117 z "},"Ø":{"ha":751,"x_min":0,"x_max":0,"o":"m 42 474 b 167 65 42 351 81 175 l 158 40 b 154 24 158 39 154 26 b 163 -28 150 4 150 -25 l 217 -37 b 239 -1 222 -39 233 -15 b 353 -36 272 -22 310 -35 b 389 -29 365 -36 375 -35 b 710 596 621 68 710 346 b 703 651 710 613 708 629 b 554 935 668 797 638 872 l 563 981 b 521 1018 565 994 526 1017 l 510 1018 l 493 974 l 456 994 b 407 996 439 994 408 996 b 42 474 189 996 46 701 z m 524 567 b 478 299 524 468 519 428 b 381 190 465 258 424 190 b 321 240 353 190 333 217 l 494 754 b 524 567 517 693 524 639 z m 240 540 b 413 857 243 667 267 857 b 446 842 422 857 436 850 l 271 354 b 240 528 251 410 239 464 z m 301 97 l 397 97 l 404 88 b 347 68 392 68 367 68 l 340 68 b 301 90 329 72 301 88 z "},"Ù":{"ha":782,"x_min":0,"x_max":0,"o":"m 169 88 b 358 -7 217 26 282 -8 b 739 692 744 0 742 301 l 739 794 b 738 940 739 817 739 919 b 672 972 718 958 697 972 b 617 929 633 972 635 932 b 536 863 574 922 535 926 b 542 742 536 821 542 781 b 406 169 542 315 500 169 b 306 268 354 169 315 221 b 275 439 296 315 274 435 l 269 922 b 260 972 269 933 267 965 b 196 990 236 981 218 990 b 165 983 181 990 182 983 b 121 990 150 983 136 990 b 88 961 110 990 90 974 b 42 647 43 719 42 665 b 169 88 42 476 72 231 z m 153 700 b 154 697 154 700 154 699 b 153 696 154 697 154 696 b 150 697 151 696 150 697 b 153 700 150 699 151 700 z m 503 1067 b 488 1085 499 1075 496 1079 b 379 1156 471 1094 396 1144 b 329 1175 363 1168 351 1186 b 297 1122 317 1169 290 1135 b 449 1019 325 1067 390 1024 b 469 1017 451 1019 467 1015 b 476 1018 469 1017 474 1017 b 503 1067 492 1025 511 1050 z "},"Ú":{"ha":782,"x_min":0,"x_max":0,"o":"m 169 88 b 358 -7 217 26 282 -8 b 739 692 744 0 742 301 l 739 794 b 738 940 739 817 739 919 b 672 972 718 958 697 972 b 617 929 633 972 635 932 b 536 863 574 922 535 926 b 542 742 536 821 542 781 b 406 169 542 315 500 169 b 306 268 354 169 315 221 b 275 439 296 315 274 435 l 269 922 b 260 972 269 933 267 965 b 196 990 236 981 218 990 b 165 983 181 990 182 983 b 121 990 150 983 136 990 b 88 961 110 990 90 974 b 42 647 43 719 42 665 b 169 88 42 476 72 231 z m 153 700 b 154 697 154 700 154 699 b 153 696 154 697 154 696 b 150 697 151 696 150 697 b 153 700 150 699 151 700 z m 299 1067 b 325 1018 290 1050 310 1025 b 332 1017 328 1017 332 1017 b 353 1019 335 1015 350 1019 b 504 1122 411 1024 476 1067 b 472 1175 511 1135 485 1169 b 422 1156 450 1186 439 1168 b 314 1085 406 1144 331 1094 b 299 1067 306 1079 303 1075 z "},"Û":{"ha":782,"x_min":0,"x_max":0,"o":"m 169 88 b 358 -7 217 26 282 -8 b 739 692 744 0 742 301 l 739 794 b 738 940 739 817 739 919 b 672 972 718 958 697 972 b 617 929 633 972 635 932 b 536 863 574 922 535 926 b 542 742 536 821 542 781 b 406 169 542 315 500 169 b 306 268 354 169 315 221 b 275 439 296 315 274 435 l 269 922 b 260 972 269 933 267 965 b 196 990 236 981 218 990 b 165 983 181 990 182 983 b 121 990 150 983 136 990 b 88 961 110 990 90 974 b 42 647 43 719 42 665 b 169 88 42 476 72 231 z m 254 1054 b 292 1015 254 1033 271 1015 b 333 1036 307 1015 322 1026 b 408 1099 347 1049 394 1086 l 413 1099 b 435 1079 413 1099 429 1085 b 515 1031 460 1058 482 1035 b 556 1065 532 1031 556 1049 l 556 1067 b 551 1092 554 1071 551 1088 b 378 1192 507 1139 446 1192 b 356 1188 371 1192 361 1193 b 294 1124 343 1175 306 1138 b 289 1119 293 1122 290 1122 l 288 1118 b 254 1054 275 1103 254 1076 z m 153 700 b 154 697 154 700 154 699 b 153 696 154 697 154 696 b 150 697 151 696 150 697 b 153 700 150 699 151 700 z "},"Ü":{"ha":782,"x_min":0,"x_max":0,"o":"m 169 88 b 358 -7 217 26 282 -8 b 739 692 744 0 742 301 l 739 794 b 738 940 739 817 739 919 b 672 972 718 958 697 972 b 617 929 633 972 635 932 b 536 863 574 922 535 926 b 542 742 536 821 542 781 b 406 169 542 315 500 169 b 306 268 354 169 315 221 b 275 439 296 315 274 435 l 269 922 b 260 972 269 933 267 965 b 196 990 236 981 218 990 b 165 983 181 990 182 983 b 121 990 150 983 136 990 b 88 961 110 990 90 974 b 42 647 43 719 42 665 b 169 88 42 476 72 231 z m 153 700 b 154 697 154 700 154 699 b 153 696 154 697 154 696 b 150 697 151 696 150 697 b 153 700 150 699 151 700 z m 436 1038 b 483 1010 449 1017 460 1010 b 556 1097 529 1010 556 1054 b 479 1143 556 1126 501 1143 b 447 1090 450 1143 453 1108 b 436 1054 446 1086 436 1058 b 435 1046 435 1054 435 1049 b 436 1038 435 1046 435 1039 z m 247 1063 b 301 1022 247 1032 276 1022 b 371 1078 338 1022 371 1038 b 296 1146 371 1114 321 1136 b 290 1147 296 1146 292 1147 b 272 1135 282 1147 276 1140 b 247 1063 263 1114 247 1086 z "},"à":{"ha":667,"x_min":0,"x_max":0,"o":"m 383 89 l 419 36 l 439 17 l 510 15 b 524 22 511 15 521 19 b 601 64 547 40 578 44 l 613 271 b 622 442 613 275 622 422 b 624 514 622 461 624 513 b 599 586 625 529 622 575 l 492 633 l 485 633 b 425 550 433 635 446 576 b 307 586 390 574 347 585 b 107 486 217 588 156 564 b 43 246 75 435 44 307 b 251 65 42 128 139 67 b 379 89 297 64 335 89 z m 172 229 b 322 457 174 279 269 458 b 410 408 331 457 400 425 b 408 376 410 404 408 381 b 244 175 407 285 326 174 b 172 229 214 175 172 190 z m 447 719 b 432 738 443 728 440 732 b 324 808 415 747 340 797 b 274 828 307 821 296 839 b 242 775 261 822 235 788 b 393 672 269 719 335 676 b 414 669 396 672 411 668 b 421 671 414 669 418 669 b 447 719 436 678 456 703 z "},"á":{"ha":667,"x_min":0,"x_max":0,"o":"m 383 89 l 419 36 l 439 17 l 510 15 b 524 22 511 15 521 19 b 601 64 547 40 578 44 l 613 271 b 622 442 613 275 622 422 b 624 514 622 461 624 513 b 599 586 625 529 622 575 l 492 633 l 485 633 b 425 550 433 635 446 576 b 307 586 390 574 347 585 b 107 486 217 588 156 564 b 43 246 75 435 44 307 b 251 65 42 128 139 67 b 379 89 297 64 335 89 z m 172 229 b 322 457 174 279 269 458 b 410 408 331 457 400 425 b 408 376 410 404 408 381 b 244 175 407 285 326 174 b 172 229 214 175 172 190 z m 243 719 b 269 671 235 703 254 678 b 276 669 272 669 276 669 b 297 672 279 668 294 672 b 449 775 356 676 421 719 b 417 828 456 788 429 822 b 367 808 394 839 383 821 b 258 738 350 797 275 747 b 243 719 250 732 247 728 z "},"â":{"ha":667,"x_min":0,"x_max":0,"o":"m 383 89 l 419 36 l 439 17 l 510 15 b 524 22 511 15 521 19 b 601 64 547 40 578 44 l 613 271 b 622 442 613 275 622 422 b 624 514 622 461 624 513 b 599 586 625 529 622 575 l 492 633 l 485 633 b 425 550 433 635 446 576 b 307 586 390 574 347 585 b 107 486 217 588 156 564 b 43 246 75 435 44 307 b 251 65 42 128 139 67 b 379 89 297 64 335 89 z m 172 229 b 322 457 174 279 269 458 b 410 408 331 457 400 425 b 408 376 410 404 408 381 b 244 175 407 285 326 174 b 172 229 214 175 172 190 z m 199 707 b 236 668 199 686 215 668 b 278 689 251 668 267 679 b 353 751 292 701 339 739 l 357 751 b 379 732 357 751 374 738 b 460 683 404 711 426 688 b 500 718 476 683 500 701 l 500 719 b 496 744 499 724 496 740 b 322 844 451 792 390 844 b 300 840 315 844 306 846 b 239 776 288 828 250 790 b 233 772 238 775 235 775 l 232 771 b 199 707 219 756 199 729 z "},"ã":{"ha":667,"x_min":0,"x_max":0,"o":"m 383 89 l 419 36 l 439 17 l 510 15 b 524 22 511 15 521 19 b 601 64 547 40 578 44 l 613 271 b 622 442 613 275 622 422 b 624 514 622 461 624 513 b 599 586 625 529 622 575 l 492 633 l 485 633 b 425 550 433 635 446 576 b 307 586 390 574 347 585 b 107 486 217 588 156 564 b 43 246 75 435 44 307 b 251 65 42 128 139 67 b 379 89 297 64 335 89 z m 172 229 b 322 457 174 279 269 458 b 410 408 331 457 400 425 b 408 376 410 404 408 381 b 244 175 407 285 326 174 b 172 229 214 175 172 190 z m 294 750 b 401 672 318 704 347 672 b 510 793 463 672 510 736 b 507 817 510 796 507 813 b 503 822 506 818 503 822 b 450 831 483 826 468 831 b 401 757 422 831 435 775 l 397 757 b 346 808 385 757 365 799 b 260 826 317 824 290 826 b 186 728 210 826 186 768 b 233 681 186 703 206 675 b 269 740 268 688 265 713 l 283 754 b 294 750 288 754 290 751 z "},"ä":{"ha":667,"x_min":0,"x_max":0,"o":"m 383 89 l 419 36 l 439 17 l 510 15 b 524 22 511 15 521 19 b 601 64 547 40 578 44 l 613 271 b 622 442 613 275 622 422 b 624 514 622 461 624 513 b 599 586 625 529 622 575 l 492 633 l 485 633 b 425 550 433 635 446 576 b 307 586 390 574 347 585 b 107 486 217 588 156 564 b 43 246 75 435 44 307 b 251 65 42 128 139 67 b 379 89 297 64 335 89 z m 172 229 b 322 457 174 279 269 458 b 410 408 331 457 400 425 b 408 376 410 404 408 381 b 244 175 407 285 326 174 b 172 229 214 175 172 190 z m 381 690 b 428 663 393 669 404 663 b 500 750 474 663 500 707 b 424 796 500 779 446 796 b 392 743 394 796 397 761 b 381 707 390 739 381 711 b 379 699 379 707 379 701 b 381 690 379 699 379 692 z m 192 715 b 246 675 192 685 221 675 b 315 731 282 675 315 690 b 240 799 315 767 265 789 b 235 800 240 799 236 800 b 217 788 226 800 221 793 b 192 715 207 767 192 739 z "},"å":{"ha":667,"x_min":0,"x_max":0,"o":"m 383 89 l 419 36 l 439 17 l 510 15 b 524 22 511 15 521 19 b 601 64 547 40 578 44 l 613 271 b 622 442 613 275 622 422 b 624 514 622 461 624 513 b 599 586 625 529 622 575 l 492 633 l 485 633 b 425 550 433 635 446 576 b 307 586 390 574 347 585 b 107 486 217 588 156 564 b 43 246 75 435 44 307 b 251 65 42 128 139 67 b 379 89 297 64 335 89 z m 172 229 b 322 457 174 279 269 458 b 410 408 331 457 400 425 b 408 376 410 404 408 381 b 244 175 407 285 326 174 b 172 229 214 175 172 190 z m 242 769 b 346 678 242 714 294 678 b 446 789 399 678 446 738 b 353 874 446 843 403 874 l 340 874 b 242 769 283 863 242 836 z m 308 778 b 353 817 308 806 328 817 b 378 789 369 817 378 804 b 332 743 378 765 354 743 b 308 778 314 743 308 764 z "},"æ":{"ha":1067,"x_min":0,"x_max":0,"o":"m 357 663 l 340 663 b 126 504 274 665 114 672 b 407 438 132 429 408 551 b 399 421 407 432 407 422 b 43 172 186 446 47 347 b 246 -17 40 49 128 -12 b 494 57 363 -21 440 8 b 626 -46 522 15 565 -18 b 678 -49 633 -47 669 -49 b 853 38 728 -49 851 -36 b 643 201 854 115 642 83 b 651 218 643 207 643 217 b 1024 476 804 215 1019 296 b 811 674 1026 606 935 671 b 547 553 703 675 613 628 b 357 663 507 618 444 663 z m 626 333 b 815 524 629 414 735 524 b 897 485 849 524 861 486 b 835 368 896 439 868 394 b 661 321 771 336 728 319 b 626 333 651 321 626 318 z m 424 296 b 242 128 436 160 319 128 b 424 296 -28 128 417 367 z "},"ç":{"ha":543,"x_min":0,"x_max":0,"o":"m 168 -225 b 211 -250 168 -246 193 -250 l 215 -250 b 242 -243 228 -250 229 -250 b 375 -103 299 -211 375 -169 b 331 -51 375 -74 350 -74 l 331 -49 b 311 43 332 -18 333 19 b 499 117 376 42 476 39 b 453 150 489 129 472 149 l 306 153 b 293 172 304 153 297 167 b 269 271 278 199 271 244 b 269 314 268 272 269 303 b 338 431 269 353 281 432 l 460 428 b 486 446 467 436 475 442 b 481 489 482 463 479 474 b 500 526 481 506 500 503 b 336 618 501 565 375 617 b 43 285 199 621 46 410 b 197 60 42 185 107 97 b 196 53 196 57 196 54 l 204 22 l 204 -74 b 226 -90 204 -75 218 -86 l 250 -104 b 289 -114 257 -107 289 -111 b 168 -225 274 -168 168 -182 z "},"è":{"ha":665,"x_min":0,"x_max":0,"o":"m 43 285 b 225 -46 39 131 75 21 b 276 -49 232 -47 268 -49 b 451 38 326 -49 450 -36 b 242 201 453 115 240 83 b 250 218 242 207 242 217 b 622 476 403 215 618 296 b 410 674 625 606 533 671 b 43 285 197 678 47 485 z m 225 333 b 414 524 228 414 333 524 b 496 485 447 524 460 486 b 433 368 494 439 467 394 b 260 321 369 336 326 319 b 225 333 250 321 225 318 z m 489 775 b 474 793 485 783 482 788 b 365 864 457 803 382 853 b 315 883 349 876 338 894 b 283 831 303 878 276 843 b 435 728 311 775 376 732 b 456 725 438 728 453 724 b 463 726 456 725 460 725 b 489 775 478 733 497 758 z "},"é":{"ha":665,"x_min":0,"x_max":0,"o":"m 43 285 b 225 -46 39 131 75 21 b 276 -49 232 -47 268 -49 b 451 38 326 -49 450 -36 b 242 201 453 115 240 83 b 250 218 242 207 242 217 b 622 476 403 215 618 296 b 410 674 625 606 533 671 b 43 285 197 678 47 485 z m 225 333 b 414 524 228 414 333 524 b 496 485 447 524 460 486 b 433 368 494 439 467 394 b 260 321 369 336 326 319 b 225 333 250 321 225 318 z m 285 775 b 311 726 276 758 296 733 b 318 725 314 725 318 725 b 339 728 321 724 336 728 b 490 831 397 732 463 775 b 458 883 497 843 471 878 b 408 864 436 894 425 876 b 300 793 392 853 317 803 b 285 775 292 788 289 783 z "},"ê":{"ha":665,"x_min":0,"x_max":0,"o":"m 43 285 b 225 -46 39 131 75 21 b 276 -49 232 -47 268 -49 b 451 38 326 -49 450 -36 b 242 201 453 115 240 83 b 250 218 242 207 242 217 b 622 476 403 215 618 296 b 410 674 625 606 533 671 b 43 285 197 678 47 485 z m 225 333 b 414 524 228 414 333 524 b 496 485 447 524 460 486 b 433 368 494 439 467 394 b 260 321 369 336 326 319 b 225 333 250 321 225 318 z m 240 763 b 278 724 240 742 257 724 b 319 744 293 724 308 735 b 394 807 333 757 381 794 l 399 807 b 421 788 399 807 415 793 b 501 739 446 767 468 743 b 542 774 518 739 542 757 l 542 775 b 538 800 540 779 538 796 b 364 900 493 847 432 900 b 342 896 357 900 347 901 b 281 832 329 883 292 846 b 275 828 279 831 276 831 l 274 826 b 240 763 261 811 240 785 z "},"ë":{"ha":665,"x_min":0,"x_max":0,"o":"m 43 285 b 225 -46 39 131 75 21 b 276 -49 232 -47 268 -49 b 451 38 326 -49 450 -36 b 242 201 453 115 240 83 b 250 218 242 207 242 217 b 622 476 403 215 618 296 b 410 674 625 606 533 671 b 43 285 197 678 47 485 z m 225 333 b 414 524 228 414 333 524 b 496 485 447 524 460 486 b 433 368 494 439 467 394 b 260 321 369 336 326 319 b 225 333 250 321 225 318 z m 422 746 b 469 718 435 725 446 718 b 542 806 515 718 542 763 b 465 851 542 835 488 851 b 433 799 436 851 439 817 b 422 763 432 794 422 767 b 421 754 421 763 421 757 b 422 746 421 754 421 747 z m 233 771 b 288 731 233 740 263 731 b 357 786 324 731 357 746 b 282 854 357 822 307 844 b 276 856 282 854 278 856 b 258 843 268 856 263 849 b 233 771 249 822 233 794 z "},"ì":{"ha":343,"x_min":0,"x_max":0,"o":"m 42 -11 b 104 -60 42 -46 74 -60 b 157 -31 133 -60 144 -31 l 160 -31 l 204 -53 b 207 -54 206 -53 207 -54 b 267 -14 226 -54 264 -37 l 300 381 b 301 406 300 382 301 400 b 300 431 301 413 300 429 b 289 447 300 432 289 446 b 204 532 272 514 293 532 b 163 486 174 532 182 486 b 121 499 147 486 136 499 b 88 431 89 499 85 451 l 42 3 z m 281 661 b 265 679 276 669 274 674 b 157 750 249 689 174 739 b 107 769 140 763 129 781 b 75 717 94 764 68 729 b 226 614 103 661 168 618 b 247 611 229 614 244 610 b 254 613 247 611 251 611 b 281 661 269 619 289 644 z "},"í":{"ha":343,"x_min":0,"x_max":0,"o":"m 42 -11 b 104 -60 42 -46 74 -60 b 157 -31 133 -60 144 -31 l 160 -31 l 204 -53 b 207 -54 206 -53 207 -54 b 267 -14 226 -54 264 -37 l 300 381 b 301 406 300 382 301 400 b 300 431 301 413 300 429 b 289 447 300 432 289 446 b 204 532 272 514 293 532 b 163 486 174 532 182 486 b 121 499 147 486 136 499 b 88 431 89 499 85 451 l 42 3 z m 76 661 b 103 613 68 644 88 619 b 110 611 106 611 110 611 b 131 614 113 610 128 614 b 282 717 189 618 254 661 b 250 769 289 729 263 764 b 200 750 228 781 217 763 b 92 679 183 739 108 689 b 76 661 83 674 81 669 z "},"î":{"ha":343,"x_min":0,"x_max":0,"o":"m 42 -11 b 104 -60 42 -46 74 -60 b 157 -31 133 -60 144 -31 l 160 -31 l 204 -53 b 207 -54 206 -53 207 -54 b 267 -14 226 -54 264 -37 l 300 381 b 301 406 300 382 301 400 b 300 431 301 413 300 429 b 289 447 300 432 289 446 b 204 532 272 514 293 532 b 163 486 174 532 182 486 b 121 499 147 486 136 499 b 88 431 89 499 85 451 l 42 3 z m 32 649 b 69 610 32 628 49 610 b 111 631 85 610 100 621 b 186 693 125 643 172 681 l 190 693 b 213 674 190 693 207 679 b 293 625 238 653 260 629 b 333 660 310 625 333 643 l 333 661 b 329 686 332 665 329 682 b 156 786 285 733 224 786 b 133 782 149 786 139 788 b 72 718 121 769 83 732 b 67 714 71 717 68 717 l 65 713 b 32 649 53 697 32 671 z "},"ï":{"ha":343,"x_min":0,"x_max":0,"o":"m 42 -11 b 104 -60 42 -46 74 -60 b 157 -31 133 -60 144 -31 l 160 -31 l 204 -53 b 207 -54 206 -53 207 -54 b 267 -14 226 -54 264 -37 l 300 381 b 301 406 300 382 301 400 b 300 431 301 413 300 429 b 289 447 300 432 289 446 b 204 532 272 514 293 532 b 163 486 174 532 182 486 b 121 499 147 486 136 499 b 88 431 89 499 85 451 l 42 3 z m 214 632 b 261 604 226 611 238 604 b 333 692 307 604 333 649 b 257 738 333 721 279 738 b 225 685 228 738 231 703 b 214 649 224 681 214 653 b 213 640 213 649 213 643 b 214 632 213 640 213 633 z m 25 657 b 79 617 25 626 54 617 b 149 672 115 617 149 632 b 74 740 149 708 99 731 b 68 742 74 740 69 742 b 50 729 60 742 54 735 b 25 657 40 708 25 681 z "},"ò":{"ha":610,"x_min":0,"x_max":0,"o":"m 42 324 b 257 56 42 156 101 56 b 568 414 424 56 568 228 b 414 671 568 518 518 653 l 353 681 b 289 701 331 685 314 701 b 54 439 186 701 88 529 b 42 357 43 407 42 385 z m 183 368 l 183 383 b 272 500 183 407 239 464 b 343 542 292 521 315 542 b 419 413 406 540 419 472 b 276 214 419 328 361 214 b 183 368 213 214 183 308 z m 414 806 b 399 824 410 814 407 818 b 290 894 382 833 307 883 b 240 914 274 907 263 925 b 208 861 228 908 201 874 b 360 758 236 806 301 763 b 381 756 363 758 378 754 b 388 757 381 756 385 756 b 414 806 403 764 422 789 z "},"ó":{"ha":610,"x_min":0,"x_max":0,"o":"m 42 324 b 257 56 42 156 101 56 b 568 414 424 56 568 228 b 414 671 568 518 518 653 l 353 681 b 289 701 331 685 314 701 b 54 439 186 701 88 529 b 42 357 43 407 42 385 z m 183 368 l 183 383 b 272 500 183 407 239 464 b 343 542 292 521 315 542 b 419 413 406 540 419 472 b 276 214 419 328 361 214 b 183 368 213 214 183 308 z m 210 806 b 236 757 201 789 221 764 b 243 756 239 756 243 756 b 264 758 246 754 261 758 b 415 861 322 763 388 806 b 383 914 422 874 396 908 b 333 894 361 925 350 907 b 225 824 317 883 242 833 b 210 806 217 818 214 814 z "},"ô":{"ha":610,"x_min":0,"x_max":0,"o":"m 42 324 b 257 56 42 156 101 56 b 568 414 424 56 568 228 b 414 671 568 518 518 653 l 353 681 b 289 701 331 685 314 701 b 54 439 186 701 88 529 b 42 357 43 407 42 385 z m 183 368 l 183 383 b 272 500 183 407 239 464 b 343 542 292 521 315 542 b 419 413 406 540 419 472 b 276 214 419 328 361 214 b 183 368 213 214 183 308 z m 165 793 b 203 754 165 772 182 754 b 244 775 218 754 233 765 b 319 838 258 788 306 825 l 324 838 b 346 818 324 838 340 824 b 426 769 371 797 393 774 b 467 804 443 769 467 788 l 467 806 b 463 831 465 810 463 826 b 289 931 418 878 357 931 b 267 926 282 931 272 932 b 206 863 254 914 217 876 b 200 858 204 861 201 861 l 199 857 b 165 793 186 842 165 815 z "},"õ":{"ha":610,"x_min":0,"x_max":0,"o":"m 42 324 b 257 56 42 156 101 56 b 568 414 424 56 568 228 b 414 671 568 518 518 653 l 353 681 b 289 701 331 685 314 701 b 54 439 186 701 88 529 b 42 357 43 407 42 385 z m 183 368 l 183 383 b 272 500 183 407 239 464 b 343 542 292 521 315 542 b 419 413 406 540 419 472 b 276 214 419 328 361 214 b 183 368 213 214 183 308 z m 261 836 b 368 758 285 790 314 758 b 476 879 429 758 476 822 b 474 903 476 882 474 899 b 469 908 472 904 469 908 b 417 917 450 913 435 917 b 368 843 389 917 401 861 l 364 843 b 313 894 351 843 332 885 b 226 913 283 910 257 913 b 153 814 176 913 153 854 b 200 767 153 789 172 761 b 236 826 235 774 232 799 l 250 840 b 261 836 254 840 257 838 z "},"ö":{"ha":610,"x_min":0,"x_max":0,"o":"m 42 324 b 257 56 42 156 101 56 b 568 414 424 56 568 228 b 414 671 568 518 518 653 l 353 681 b 289 701 331 685 314 701 b 54 439 186 701 88 529 b 42 357 43 407 42 385 z m 183 368 l 183 383 b 272 500 183 407 239 464 b 343 542 292 521 315 542 b 419 413 406 540 419 472 b 276 214 419 328 361 214 b 183 368 213 214 183 308 z m 347 776 b 394 749 360 756 371 749 b 467 836 440 749 467 793 b 390 882 467 865 413 882 b 358 829 361 882 364 847 b 347 793 357 825 347 797 b 346 785 346 793 346 788 b 347 776 346 785 346 778 z m 158 801 b 213 761 158 771 188 761 b 282 817 249 761 282 776 b 207 885 282 853 232 875 b 201 886 207 885 203 886 b 183 874 193 886 188 879 b 158 801 174 853 158 825 z "},"ø":{"ha":610,"x_min":0,"x_max":0,"o":"m 186 6 b 206 -32 186 -10 193 -32 l 264 -32 b 282 6 269 -32 281 -1 l 292 58 b 568 414 443 81 568 240 b 414 671 568 518 518 653 l 413 671 l 425 733 l 425 774 b 375 794 425 783 382 794 b 364 793 372 794 364 793 l 339 685 b 289 701 322 690 308 701 b 54 439 186 701 88 529 b 42 357 43 407 42 385 l 42 324 b 197 61 42 179 85 85 l 188 19 b 186 6 188 18 186 7 z m 183 368 l 183 383 b 272 500 183 407 239 464 b 303 528 282 510 292 521 l 235 229 b 183 368 200 258 183 322 z m 419 413 b 325 228 419 346 382 260 l 383 526 b 419 413 411 503 419 456 z "},"ù":{"ha":761,"x_min":0,"x_max":0,"o":"m 43 288 b 42 251 42 275 42 263 b 217 33 42 149 71 33 b 479 175 324 33 411 92 l 486 174 l 528 58 b 556 50 533 47 546 50 b 718 97 588 50 701 71 b 719 153 718 118 719 135 b 629 529 719 281 688 418 b 507 582 608 568 549 582 b 454 501 464 582 454 542 b 457 408 454 471 457 440 b 456 371 457 396 456 383 b 400 299 447 358 408 308 b 283 224 386 283 286 221 b 253 325 257 229 253 288 b 271 572 253 411 271 479 b 193 607 254 596 214 607 b 96 526 140 607 108 572 l 88 492 b 43 288 57 379 42 324 z m 467 692 b 451 710 463 700 460 704 b 343 781 435 719 360 769 b 293 800 326 793 315 811 b 261 747 281 794 254 760 b 413 644 289 692 354 649 b 433 642 415 644 431 640 b 440 643 433 642 438 642 b 467 692 456 650 475 675 z "},"ú":{"ha":761,"x_min":0,"x_max":0,"o":"m 43 288 b 42 251 42 275 42 263 b 217 33 42 149 71 33 b 479 175 324 33 411 92 l 486 174 l 528 58 b 556 50 533 47 546 50 b 718 97 588 50 701 71 b 719 153 718 118 719 135 b 629 529 719 281 688 418 b 507 582 608 568 549 582 b 454 501 464 582 454 542 b 457 408 454 471 457 440 b 456 371 457 396 456 383 b 400 299 447 358 408 308 b 283 224 386 283 286 221 b 253 325 257 229 253 288 b 271 572 253 411 271 479 b 193 607 254 596 214 607 b 96 526 140 607 108 572 l 88 492 b 43 288 57 379 42 324 z m 263 692 b 289 643 254 675 274 650 b 296 642 292 642 296 642 b 317 644 299 640 314 644 b 468 747 375 649 440 692 b 436 800 475 760 449 794 b 386 781 414 811 403 793 b 278 710 369 769 294 719 b 263 692 269 704 267 700 z "},"û":{"ha":761,"x_min":0,"x_max":0,"o":"m 43 288 b 42 251 42 275 42 263 b 217 33 42 149 71 33 b 479 175 324 33 411 92 l 486 174 l 528 58 b 556 50 533 47 546 50 b 718 97 588 50 701 71 b 719 153 718 118 719 135 b 629 529 719 281 688 418 b 507 582 608 568 549 582 b 454 501 464 582 454 542 b 457 408 454 471 457 440 b 456 371 457 396 456 383 b 400 299 447 358 408 308 b 283 224 386 283 286 221 b 253 325 257 229 253 288 b 271 572 253 411 271 479 b 193 607 254 596 214 607 b 96 526 140 607 108 572 l 88 492 b 43 288 57 379 42 324 z m 218 679 b 256 640 218 658 235 640 b 297 661 271 640 286 651 b 372 724 311 674 358 711 l 376 724 b 399 704 376 724 393 710 b 479 656 424 683 446 660 b 519 690 496 656 519 674 l 519 692 b 515 717 518 696 515 713 b 342 817 471 764 410 817 b 319 813 335 817 325 818 b 258 749 307 800 269 763 b 253 744 257 747 254 747 l 251 743 b 218 679 239 728 218 701 z "},"ü":{"ha":761,"x_min":0,"x_max":0,"o":"m 43 288 b 42 251 42 275 42 263 b 217 33 42 149 71 33 b 479 175 324 33 411 92 l 486 174 l 528 58 b 556 50 533 47 546 50 b 718 97 588 50 701 71 b 719 153 718 118 719 135 b 629 529 719 281 688 418 b 507 582 608 568 549 582 b 454 501 464 582 454 542 b 457 408 454 471 457 440 b 456 371 457 396 456 383 b 400 299 447 358 408 308 b 283 224 386 283 286 221 b 253 325 257 229 253 288 b 271 572 253 411 271 479 b 193 607 254 596 214 607 b 96 526 140 607 108 572 l 88 492 b 43 288 57 379 42 324 z m 400 663 b 447 635 413 642 424 635 b 519 722 493 635 519 679 b 443 768 519 751 465 768 b 411 715 414 768 417 733 b 400 679 410 711 400 683 b 399 671 399 679 399 674 b 400 663 399 671 399 664 z m 211 688 b 265 647 211 657 240 647 b 335 703 301 647 335 663 b 260 771 335 739 285 761 b 254 772 260 771 256 772 b 236 760 246 772 240 765 b 211 688 226 739 211 711 z "},"€":{"ha":703,"x_min":0,"x_max":0,"o":"m 78 404 b 163 346 78 349 154 358 l 267 167 b 508 57 310 92 424 57 b 576 121 557 57 558 86 b 619 157 583 136 608 140 b 650 235 635 182 635 210 b 619 253 639 243 649 253 b 525 240 586 253 557 240 b 389 314 465 240 428 271 l 386 317 b 356 367 375 329 356 351 b 478 415 356 379 447 404 b 515 464 501 424 515 439 b 439 504 515 504 481 504 b 319 493 399 504 361 493 l 319 539 b 371 557 319 543 363 557 l 392 557 b 614 626 497 557 614 556 b 550 667 614 663 583 667 l 340 667 b 522 825 360 781 408 825 b 615 797 564 825 582 797 b 661 854 656 797 661 822 b 571 929 661 908 614 915 b 478 961 532 942 522 961 b 172 661 338 961 215 775 b 82 597 89 640 113 635 b 42 535 60 569 42 572 b 115 493 65 507 78 493 b 135 499 117 493 133 499 b 146 497 138 499 144 497 b 78 404 146 421 78 476 z "}}}
